<?xml version="1.0" standalone="no"?>
<!DOCTYPE svg PUBLIC "-//W3C//DTD SVG 1.1//EN" "http://www.w3.org/Graphics/SVG/1.1/DTD/svg11.dtd" >
<svg xmlns="http://www.w3.org/2000/svg" xmlns:xlink="http://www.w3.org/1999/xlink" version="1.1">
<metadata>
Created by FontForge 20150102 at Wed Feb 11 16:09:13 2015
 By uniteet7
Copyright (C) 1993; Type Market Ltd. Moscow, 119136, Box 20; phone:(095)1427712; Created by A.Kustov
</metadata>
<defs>
<font id="micrabold_allfont_ru" horiz-adv-x="1366" >
  <font-face 
    font-family="micrabold_allfont_ru"
    font-weight="700"
    font-stretch="normal"
    units-per-em="1000"
    panose-1="0 0 0 0 0 0 0 0 0 0"
    ascent="800"
    descent="-200"
    x-height="714"
    cap-height="713"
    bbox="-62 -147 1577 882"
    underline-thickness="50"
    underline-position="-75"
    unicode-range="U+0020-2122"
  />
<missing-glyph horiz-adv-x="853" 
d="M53 0v853h747v-853h-747zM747 53v747h-641v-747h641z" />
    <glyph glyph-name=".notdef" horiz-adv-x="853" 
d="M53 0v853h747v-853h-747zM747 53v747h-641v-747h641z" />
    <glyph glyph-name=".null" horiz-adv-x="0" 
 />
    <glyph glyph-name="nonmarkingreturn" horiz-adv-x="518" 
 />
    <glyph glyph-name="space" unicode=" " horiz-adv-x="518" 
 />
    <glyph glyph-name="exclam" unicode="!" horiz-adv-x="380" 
d="M88 254v471h200v-471h-200zM83 175h215v-185h-220v180z" />
    <glyph glyph-name="quotedbl" unicode="&#x22;" horiz-adv-x="356" 
d="M46 708h111l-23 -227h-66zM206 708h111l-23 -227h-66z" />
    <glyph glyph-name="numbersign" unicode="#" horiz-adv-x="633" 
d="M254 677h55l-33 -130h148l34 130h54l-33 -130h130l-13 -56h-132l-31 -124h131l-14 -56h-131l-33 -135h-55l35 135h-149l-37 -135h-54l37 135h-135l12 56h137l31 124h-136l16 56h134zM411 491h-149l-31 -124h148z" />
    <glyph glyph-name="dollar" unicode="$" horiz-adv-x="981" 
d="M581 -12v-75h-210v75q-140 0 -186 9q-73 14 -102 65q-32 56 -32 179h220q0 -60 26 -70t183 -10q159 0 184 5t25 39q0 41 -35 51.5t-174 10.5q-275 0 -347 40t-72 198q0 143 84 187q59 31 226 31v73h210v-73q183 0 237 -34q76 -47 76 -214h-220q0 57 -25 66.5t-173 9.5
q-149 0 -172 -5.5t-23 -40.5q0 -37 39 -48t160 -11q272 0 350.5 -43t78.5 -198q0 -141 -75 -183q-61 -34 -253 -34z" />
    <glyph glyph-name="percent" unicode="%" horiz-adv-x="1162" 
d="M137 -11v119l890 616v-125zM172 564q0 111 24 130.5t151 19.5t151 -19.5t24 -130.5t-24 -130.5t-151 -19.5t-149 18q-26 21 -26 132zM282 564q0 -22 15.5 -28.5t50.5 -6.5q30 0 40 2q26 5 26 33q0 21 -17 28t-49 7q-27 0 -37 -2q-29 -6 -29 -33zM639 150q0 111 24 130.5
t151 19.5t151 -19.5t24 -130.5t-24 -130.5t-151 -19.5t-149 18q-26 21 -26 132zM749 150q0 -22 15.5 -28.5t50.5 -6.5q30 0 40 2q26 5 26 33q0 21 -17 28t-49 7q-27 0 -37 -2q-29 -6 -29 -33z" />
    <glyph glyph-name="ampersand" unicode="&#x26;" horiz-adv-x="1198" 
d="M549 724q249 0 318 -29.5t69 -130.5v-75h-220q0 56 -20 65.5t-139 9.5q-94 0 -125 -4.5t-31 -20.5q0 -29 3.5 -37t22.5 -17l361 -181q7 8 9.5 21t2.5 25v39h205v-98q1 -17 1 -27q0 -19 -2.5 -29.5t-13.5 -18.5l157 -81l-93 -135l-128 66q-44 -46 -139 -63
q-79 -14 -238 -14q-303 0 -375 40.5t-72 207.5q0 74 27 117t86 69q-25 32 -29.5 50.5t-4.5 90.5q0 100 65.5 130t302.5 30zM322 237q0 -57 33 -67.5t194 -10.5h31q45 0 74.5 1.5t49.5 13.5l-286 132q-13 7 -18 10q-16 9 -28 9q-21 0 -35.5 -25.5t-14.5 -62.5z" />
    <glyph glyph-name="quotesingle" unicode="'" horiz-adv-x="204" 
d="M46 708h111l-23 -227h-66z" />
    <glyph glyph-name="parenleft" unicode="(" horiz-adv-x="392" 
d="M311 810h-100q-81 0 -119 -68q-56 -99 -56 -374q0 -273 56 -374q38 -69 119 -69h100v130h-35q-36 0 -50.5 65.5t-14.5 247.5q0 185 14 248.5t51 63.5h35v130z" />
    <glyph glyph-name="parenright" unicode=")" horiz-adv-x="412" 
d="M44 810h100q81 0 119 -68q56 -99 56 -374q0 -273 -56 -374q-38 -69 -119 -69h-100v130h35q36 0 50.5 65.5t14.5 247.5q0 184 -14 248t-51 64h-35v130z" />
    <glyph glyph-name="asterisk" unicode="*" horiz-adv-x="344" 
d="M184 548l89 -19q20 -4 29 -15t9 -24q0 -14 -9.5 -24.5t-24.5 -10.5q-18 0 -37 21t-41 43q-7 8 -20 20q5 -16 7 -26q9 -34 18 -61q3 -12 3 -21q0 -17 -11 -27t-25 -10q-13 0 -23.5 9.5t-10.5 28.5q0 9 3 20q10 34 23 70q2 6 5 16l-61 -68q-18 -19 -37 -19q-14 0 -24 10.5
t-10 24.5q0 13 8.5 23t30.5 15l88 24l-89 18q-19 3 -29 14t-10 24q0 14 9.5 24.5t23.5 10.5q19 0 36.5 -18.5t52.5 -52.5q5 -4 12 -12l-29 86q-3 12 -3 21q0 17 11 27t24 10q15 0 25 -10t10 -28q0 -9 -3 -20l-26 -86l59 67q16 19 36 19q15 0 25 -10t10 -25q0 -12 -9.5 -22.5
t-29.5 -15.5z" />
    <glyph glyph-name="plus" unicode="+" horiz-adv-x="564" 
d="M67 392h144v145h135v-145h157v-138h-157v-144h-135v144h-144v138z" />
    <glyph glyph-name="comma" unicode="," horiz-adv-x="365" 
d="M68 18v185h220v-245q0 -44 -26 -74.5t-64 -30.5h-105h-11q-15 0 -29 5v105h55q26 0 26 25q0 30 -18 30h-48z" />
    <glyph glyph-name="hyphen" unicode="-" horiz-adv-x="1019" 
d="M143 294v160h730v-160h-730z" />
    <glyph glyph-name="period" unicode="." horiz-adv-x="361" 
d="M68 -11v195h220v-195h-220z" />
    <glyph glyph-name="slash" unicode="/" horiz-adv-x="338" 
d="M341 728l-222 -817h-111l222 817h111z" />
    <glyph glyph-name="zero" unicode="0" horiz-adv-x="1011" 
d="M931 356q0 -246 -61 -303q-70 -65 -369 -65t-368 64q-62 57 -62 304q0 245 61 302q70 65 369 65t369 -65q61 -56 61 -302zM711 356q0 119 -31 148q-36 34 -179 34q-144 0 -179 -33q-31 -29 -31 -149q0 -119 31 -149q36 -34 179 -34q144 0 177 31.5t33 151.5z" />
    <glyph glyph-name="one" unicode="1" horiz-adv-x="1012" 
d="M774 0h-220v528h-34l-218 -191l-117 146l255 230h334v-713z" />
    <glyph glyph-name="two" unicode="2" horiz-adv-x="1008" 
d="M512 425q130 0 164.5 10t34.5 46q0 44 -24.5 51t-175.5 7q-155 0 -180 -10.5t-25 -73.5h-210q0 197 62 235q56 34 353 34q268 0 336.5 -37.5t68.5 -180.5q0 -170 -92 -218q-71 -37 -313 -37q-135 0 -174 -15q-31 -12 -31 -51h600v-185h-820v220q0 112 103.5 158.5
t322.5 46.5z" />
    <glyph glyph-name="three" unicode="3" horiz-adv-x="1008" 
d="M409 439h87q149 0 173.5 6t24.5 44t-23.5 44t-174.5 6q-147 0 -172 -10t-25 -70h-205v80q0 121 102 158q75 27 299 27q273 0 344 -45q60 -38 60 -182q0 -58 -19.5 -92t-50.5 -49q44 -10 62 -41t18 -93q0 -154 -67 -193.5t-347 -39.5q-153 0 -220 9q-95 13 -136 50
q-45 41 -45 126v90h205q0 -68 24 -79t172 -11q159 0 184 6t25 46q0 39 -26.5 46t-182.5 7h-86v160z" />
    <glyph glyph-name="four" unicode="4" horiz-adv-x="1009" 
d="M805 714v-415h130v-160h-130v-139h-220v139h-545v280l395 295h370zM232 299h353v230h-56l-297 -210v-20z" />
    <glyph glyph-name="five" unicode="5" horiz-adv-x="1009" 
d="M100 285h199q0 33 25 39t171 6q152 0 178 -10t26 -71q0 -63 -30 -74.5t-174 -11.5q-147 0 -171.5 8.5t-24.5 58.5h-220v-71q0 -108 79.5 -138.5t336.5 -30.5q284 0 354 45t70 215q0 169 -62 207q-53 33 -292 33q-195 0 -271 -44v109h585v160h-779v-430z" />
    <glyph glyph-name="six" unicode="6" horiz-adv-x="1007" 
d="M288 404q32 32 97.5 44t182.5 12q206 0 267 -44t61 -191q0 -154 -62 -196q-58 -39 -266 -39q-338 0 -403.5 50.5t-65.5 317.5q0 264 56 315.5t325 51.5q298 0 364 -41q52 -33 52 -184h-205q0 39 -42 47t-183 8q-116 0 -139 -16t-23 -97q0 -5 -5 -15.5t-11 -22.5zM496 290
q-130 0 -161 -9.5t-31 -55.5q0 -44 32 -54.5t160 -10.5q130 0 161.5 10t31.5 55q0 44 -32 54.5t-161 10.5z" />
    <glyph glyph-name="seven" unicode="7" horiz-adv-x="1010" 
d="M98 528v185h788v-175l-5 -5l-400 -534h-272l400 529h-511z" />
    <glyph glyph-name="eight" unicode="8" horiz-adv-x="1007" 
d="M106 499q0 152 69 188.5t329 36.5q259 0 322 -34q70 -38 70 -191q0 -49 -17 -84q-20 -42 -57 -51q40 -12 62 -46.5t22 -95.5q0 -158 -63 -195.5t-336 -37.5q-279 0 -344.5 37.5t-65.5 195.5q0 60 25 97q22 33 64 45q-37 9 -58.5 49t-21.5 86zM311 499q0 -40 28.5 -47.5
t162.5 -7.5q116 0 136 2q53 5 53 53q0 40 -28 47.5t-162 7.5q-137 0 -163.5 -7t-26.5 -48zM302 222q0 -46 29.5 -54.5t169.5 -8.5q144 0 172 8t28 55q0 45 -30 53.5t-170 8.5q-142 0 -170.5 -8t-28.5 -54z" />
    <glyph glyph-name="nine" unicode="9" horiz-adv-x="1010" 
d="M708 311q-32 -32 -97.5 -44t-182.5 -12q-206 0 -267 44t-61 191q0 154 60 194.5t268 40.5q338 0 403.5 -50.5t65.5 -317.5q0 -264 -58 -317q-54 -50 -323 -50q-298 0 -364 41q-52 33 -52 184h205q0 -39 42 -47t183 -8q116 0 139 16t23 97q0 5 5 15t11 23zM500 425
q130 0 161 9.5t31 55.5q0 44 -32 54.5t-160 10.5q-130 0 -161.5 -10t-31.5 -55q0 -44 32 -54.5t161 -10.5z" />
    <glyph glyph-name="colon" unicode=":" horiz-adv-x="366" 
d="M72 529v195h220v-195h-220zM72 -11v195h220v-195h-220z" />
    <glyph glyph-name="semicolon" unicode=";" horiz-adv-x="399" 
d="M88 723h220v-195h-220v195zM88 203h220v-245q0 -44 -26 -74.5t-64 -30.5h-105h-11q-15 0 -29 5v105h55q26 0 26 25q0 30 -18 30h-48v185z" />
    <glyph glyph-name="less" unicode="&#x3c;" horiz-adv-x="367" 
d="M31 294v99l286 194v-134l-169 -107l169 -108v-134z" />
    <glyph glyph-name="equal" unicode="=" horiz-adv-x="538" 
d="M68 279h408v-111h-408v111zM68 479h408v-111h-408v111z" />
    <glyph glyph-name="greater" unicode="&#x3e;" horiz-adv-x="367" 
d="M333 294l-285 -190v134l169 108l-169 107v134l285 -194v-99z" />
    <glyph glyph-name="question" unicode="?" horiz-adv-x="889" 
d="M415 724q213 0 275 -30q85 -41 85 -187q0 -93 -43 -148q-38 -49 -102 -60q-110 -20 -133.5 -29.5t-23.5 -40.5h-203l-1 70q0 60 41.5 87.5t147.5 47.5q64 12 86 21q41 17 41 52q0 43 -21 50t-149 7t-149 -14t-21 -101h-190q0 199 60 240q51 35 300 35zM256 179h229l5 -5
v-174h-234v179z" />
    <glyph glyph-name="at" unicode="@" horiz-adv-x="652" 
d="M324 518q-47 0 -74.5 -32t-27.5 -72q0 -35 23 -60.5t63 -25.5q46 0 74 32q24 28 24 68q0 36 -20 61q-23 29 -62 29zM328 668q-110 0 -177 -74q-61 -68 -61 -162t59 -159q67 -73 179 -73q46 0 91.5 17t64.5 41l30 -36q-19 -26 -73.5 -46t-116.5 -20q-135 0 -214 85
q-72 77 -72 189q0 113 73 193q81 89 217 89q94 0 164 -46q88 -57 114 -172q2 -17 4 -35t2 -23q0 -63 -25 -103q-32 -51 -95 -51q-47 0 -67 25q-6 8 -11 25q-12 -17 -23 -25q-35 -25 -93 -25q-61 0 -95.5 38.5t-34.5 91.5q0 59 39 103q43 49 113 49q43 0 72 -16l38 -38l2 48
h46l-22 -174l-2 -16q0 -42 44 -42q34 0 51 34t17 80q0 20 -4 48q-24 93 -89 139q-58 41 -145 41z" />
    <glyph glyph-name="A" unicode="A" horiz-adv-x="1149" 
d="M376 714h378l354 -714h-257l-68 119h-436l-68 -119h-257zM582 553h-34l-119 -249h271z" />
    <glyph glyph-name="B" unicode="B" horiz-adv-x="1007" 
d="M285 286h381q31 0 47.5 -12.5t16.5 -46.5q0 -54 -64 -54h-381v113zM65 715v-715h665q118 0 169 45t51 153q0 125 -99 169q31 14 52 52t21 94q0 127 -70 172q-47 30 -150 30h-639zM285 542h390q27 0 41 -11t14 -37q0 -25 -14.5 -36.5t-40.5 -11.5h-390v96z" />
    <glyph glyph-name="C" unicode="C" horiz-adv-x="1008" 
d="M491 725q306 0 377 -51q62 -44 62 -234h-221q0 62 -33 79q-41 21 -185 21q-161 0 -189 -25t-28 -158q0 -132 28 -157t189 -25q146 0 182.5 17.5t36.5 82.5h220q0 -191 -60 -234q-71 -51 -379 -51t-372.5 56t-64.5 312q0 255 62 309q67 58 375 58z" />
    <glyph glyph-name="D" unicode="D" horiz-adv-x="1102" 
d="M62 1v714h616q188 0 248 -75q56 -70 56 -283q0 -212 -55 -281q-60 -75 -249 -75h-616zM282 186h359q71 0 96 36t25 135q0 100 -25 136.5t-96 36.5h-359v-344z" />
    <glyph glyph-name="E" unicode="E" horiz-adv-x="958" 
d="M79 0v715h770v-173h-550v-99h525v-172h-525v-98h550v-173h-770z" />
    <glyph glyph-name="F" unicode="F" horiz-adv-x="920" 
d="M67 0v715h764v-185h-544v-123h514v-185h-514v-222h-220z" />
    <glyph glyph-name="G" unicode="G" horiz-adv-x="1138" 
d="M1031 456h-220q0 63 -31 73.5t-214 10.5t-214 -23t-31 -161q0 -137 30.5 -159.5t215.5 -22.5q184 0 214 9t30 66h-272v160h492q0 -233 -17 -295q-24 -87 -120 -109q-71 -16 -327 -16q-336 0 -401 53.5t-65 314.5t63 313q67 55 403 55q322 0 389 -37q75 -41 75 -232z" />
    <glyph glyph-name="H" unicode="H" horiz-adv-x="1102" 
d="M71 713h220v-250h475v250h220v-714h-220v279h-475v-279h-220v714z" />
    <glyph glyph-name="I" unicode="I" horiz-adv-x="345" 
d="M58 -1v714h220v-714h-220z" />
    <glyph glyph-name="J" unicode="J" horiz-adv-x="909" 
d="M567 714h220v-540q0 -115 -101 -155q-76 -30 -267 -30q-190 0 -266 30q-102 40 -102 155v140h220v-66q0 -43 42 -60q35 -14 106 -14q72 0 105 13q43 17 43 61v466z" />
    <glyph glyph-name="K" unicode="K" horiz-adv-x="1060" 
d="M76 714h220v-250h115l249 250h303l-357 -340l403 -373h-319l-279 278h-115v-279h-220v714z" />
    <glyph glyph-name="L" unicode="L" horiz-adv-x="859" 
d="M80 714h220v-529h499v-185h-719v714z" />
    <glyph glyph-name="M" unicode="M" 
d="M78 713v-714h220v501q0 9 -3 23q-7 32 -7 33q0 7 6 7q4 0 9 -10t11 -23l274 -531h180l254 529q4 10 10 21.5t10 11.5q6 0 6 -8q0 -4 -5 -23t-5 -32v-499h220v714h-375l-188 -401q-6 -39 -9.5 -62.5t-7.5 -23.5q-5 0 -9.5 39.5t-7.5 46.5l-188 401h-395z" />
    <glyph glyph-name="N" unicode="N" horiz-adv-x="1194" 
d="M1072 713h-220v-492q8 -28 16 -55q0 -10 1 -20q-7 0 -13.5 13t-12.5 26l-376 528h-360v-714h220v493q0 1 -17 55q-1 10 -1 20q7 0 13.5 -13.5t12.5 -25.5l377 -529h360v714z" />
    <glyph glyph-name="O" unicode="O" horiz-adv-x="1108" 
d="M1031 357q0 -261 -63 -312q-68 -55 -410 -55q-250 0 -328 18q-98 23 -124 100q-20 59 -20 249q0 261 62 312q68 56 410 56q341 0 409 -55q64 -52 64 -313zM306 357q0 -137 31.5 -159.5t220.5 -22.5q190 0 221.5 22.5t31.5 159.5q0 138 -31.5 160.5t-220.5 22.5
q-190 0 -221.5 -22.5t-31.5 -160.5z" />
    <glyph glyph-name="P" unicode="P" horiz-adv-x="1006" 
d="M93 715h538q176 0 232 -43q70 -53 70 -227q0 -173 -69 -226q-57 -44 -233 -44h-318v-175h-220v715zM313 360h318q39 0 59 17q24 20 24 68q0 47 -24 68q-20 17 -59 17h-318v-170z" />
    <glyph glyph-name="Q" unicode="Q" horiz-adv-x="1200" 
d="M1060 356v-21q0 -47 -2.5 -78t-10.5 -58l109 -63l-86 -150l-86 51q-66 -41 -178 -46q-45 -2 -231 -2q-338 0 -411 55t-73 312q0 258 66 311q72 57 418 57q349 0 419 -55q66 -52 66 -313zM576 174h28h23q79 0 108 6l-196 112l90 159l211 -131v36q0 137 -33 160t-232 23
t-231.5 -22.5t-32.5 -160.5q0 -136 33 -159t232 -23z" />
    <glyph glyph-name="R" unicode="R" horiz-adv-x="1072" 
d="M78 715h640q118 0 167 -43q53 -47 53 -165q0 -92 -22 -136t-77 -66q60 -26 79.5 -52t19.5 -93v-160h-220v128q0 28 -15 47q-19 25 -57 25h-348v-200h-220v715zM298 530v-145h353q36 0 51.5 15.5t15.5 56.5t-16 57t-51 16h-353z" />
    <glyph glyph-name="S" unicode="S" horiz-adv-x="1033" 
d="M505 161q159 0 184 5t25 39q0 41 -35 51.5t-174 10.5q-275 0 -347 40t-72 198q0 146 94 187q72 31 320 31q221 0 280 -12q139 -28 139 -236h-220q0 57 -25 66.5t-173 9.5q-149 0 -172 -5.5t-23 -40.5q0 -37 39 -48t160 -11q272 0 350.5 -43t78.5 -198q0 -143 -88 -183
q-76 -34 -342 -34q-205 0 -266 9q-94 14 -128 65.5t-34 178.5h220q0 -60 26 -70t183 -10z" />
    <glyph glyph-name="T" unicode="T" horiz-adv-x="1037" 
d="M87 530v185h851v-185h-315v-530h-220v530h-316z" />
    <glyph glyph-name="U" unicode="U" horiz-adv-x="1071" 
d="M992 714v-435q0 -194 -85 -244q-77 -46 -370 -46q-292 0 -369 46q-85 51 -85 244v435h220v-435q0 -65 36 -83q43 -22 198 -22q153 0 194 20.5t41 84.5v435h220z" />
    <glyph glyph-name="V" unicode="V" horiz-adv-x="1115" 
d="M285 714h-248l361 -714h334l361 714h-248l-270 -526h-10h-10z" />
    <glyph glyph-name="W" unicode="W" horiz-adv-x="1521" 
d="M1271 714l-198 -528h-24l-162 528h-263l-162 -528h-24l-198 528h-235l277 -714h337l121 438q1 2 5 51.5t10 49.5q7 0 11 -49.5t4 -51.5l122 -438h337l277 714h-235z" />
    <glyph glyph-name="X" unicode="X" horiz-adv-x="1036" 
d="M5 715l327 -350l-327 -365h296l215 240l215 -240h296l-327 365l327 350h-305l-206 -230l-206 230h-305z" />
    <glyph glyph-name="Y" unicode="Y" horiz-adv-x="1054" 
d="M10 714l402 -467v-247h220v247l408 467h-301l-184 -234q-18 -23 -23 -58.5t-7 -35.5q-4 21 -9.5 48t-20.5 46l-184 234h-301z" />
    <glyph glyph-name="Z" unicode="Z" horiz-adv-x="1053" 
d="M104 715h853v-175l-494 -355h509v-185h-889v175l488 355h-467v185z" />
    <glyph glyph-name="bracketleft" unicode="[" horiz-adv-x="289" 
d="M64 761h185v-56h-74v-762h77v-56h-188v874z" />
    <glyph glyph-name="backslash" unicode="\" horiz-adv-x="338" 
d="M6 728h111l222 -817h-111z" />
    <glyph glyph-name="bracketright" unicode="]" horiz-adv-x="287" 
d="M216 761h-185v-56h74v-762h-77v-56h188v874z" />
    <glyph glyph-name="asciicircum" unicode="^" horiz-adv-x="406" 
d="M39 399l147 242h40l146 -242h-33l-133 155l-135 -155h-32z" />
    <glyph glyph-name="underscore" unicode="_" horiz-adv-x="389" 
d="M1 -1h388v-55h-388v55z" />
    <glyph glyph-name="grave" unicode="`" horiz-adv-x="320" 
d="M123 758l151 -171l-38 -33l-189 130z" />
    <glyph glyph-name="a" unicode="a" horiz-adv-x="1149" 
d="M376 714h378l354 -714h-257l-68 119h-436l-68 -119h-257zM582 553h-34l-119 -249h271z" />
    <glyph glyph-name="b" unicode="b" horiz-adv-x="1007" 
d="M285 286h381q31 0 47.5 -12.5t16.5 -46.5q0 -54 -64 -54h-381v113zM65 715v-715h665q118 0 169 45t51 153q0 125 -99 169q31 14 52 52t21 94q0 127 -70 172q-47 30 -150 30h-639zM285 542h390q27 0 41 -11t14 -37q0 -25 -14.5 -36.5t-40.5 -11.5h-390v96z" />
    <glyph glyph-name="c" unicode="c" horiz-adv-x="1008" 
d="M491 725q306 0 377 -51q62 -44 62 -234h-221q0 62 -33 79q-41 21 -185 21q-161 0 -189 -25t-28 -158q0 -132 28 -157t189 -25q146 0 182.5 17.5t36.5 82.5h220q0 -191 -60 -234q-71 -51 -379 -51t-372.5 56t-64.5 312q0 255 62 309q67 58 375 58z" />
    <glyph glyph-name="d" unicode="d" horiz-adv-x="1102" 
d="M62 1v714h616q188 0 248 -75q56 -70 56 -283q0 -212 -55 -281q-60 -75 -249 -75h-616zM282 186h359q71 0 96 36t25 135q0 100 -25 136.5t-96 36.5h-359v-344z" />
    <glyph glyph-name="e" unicode="e" horiz-adv-x="958" 
d="M79 0v715h770v-173h-550v-99h525v-172h-525v-98h550v-173h-770z" />
    <glyph glyph-name="f" unicode="f" horiz-adv-x="920" 
d="M67 0v715h764v-185h-544v-123h514v-185h-514v-222h-220z" />
    <glyph glyph-name="g" unicode="g" horiz-adv-x="1138" 
d="M1031 456h-220q0 63 -31 73.5t-214 10.5t-214 -23t-31 -161q0 -137 30.5 -159.5t215.5 -22.5q184 0 214 9t30 66h-272v160h492q0 -233 -17 -295q-24 -87 -120 -109q-71 -16 -327 -16q-336 0 -401 53.5t-65 314.5t63 313q67 55 403 55q322 0 389 -37q75 -41 75 -232z" />
    <glyph glyph-name="h" unicode="h" horiz-adv-x="1102" 
d="M71 713h220v-250h475v250h220v-714h-220v279h-475v-279h-220v714z" />
    <glyph glyph-name="i" unicode="i" horiz-adv-x="345" 
d="M58 -1v714h220v-714h-220z" />
    <glyph glyph-name="j" unicode="j" horiz-adv-x="909" 
d="M567 714h220v-540q0 -115 -101 -155q-76 -30 -267 -30q-190 0 -266 30q-102 40 -102 155v140h220v-66q0 -43 42 -60q35 -14 106 -14q72 0 105 13q43 17 43 61v466z" />
    <glyph glyph-name="k" unicode="k" horiz-adv-x="1060" 
d="M76 714h220v-250h115l249 250h303l-357 -340l403 -373h-319l-279 278h-115v-279h-220v714z" />
    <glyph glyph-name="l" unicode="l" horiz-adv-x="859" 
d="M80 714h220v-529h499v-185h-719v714z" />
    <glyph glyph-name="m" unicode="m" 
d="M78 713v-714h220v501q0 9 -3 23q-7 32 -7 33q0 7 6 7q4 0 9 -10t11 -23l274 -531h180l254 529q4 10 10 21.5t10 11.5q6 0 6 -8q0 -4 -5 -23t-5 -32v-499h220v714h-375l-188 -401q-6 -39 -9.5 -62.5t-7.5 -23.5q-5 0 -9.5 39.5t-7.5 46.5l-188 401h-395z" />
    <glyph glyph-name="n" unicode="n" horiz-adv-x="1194" 
d="M1072 713h-220v-492q8 -28 16 -55q0 -10 1 -20q-7 0 -13.5 13t-12.5 26l-376 528h-360v-714h220v493q0 1 -17 55q-1 10 -1 20q7 0 13.5 -13.5t12.5 -25.5l377 -529h360v714z" />
    <glyph glyph-name="o" unicode="o" horiz-adv-x="1108" 
d="M1031 357q0 -261 -63 -312q-68 -55 -410 -55q-250 0 -328 18q-98 23 -124 100q-20 59 -20 249q0 261 62 312q68 56 410 56q341 0 409 -55q64 -52 64 -313zM306 357q0 -137 31.5 -159.5t220.5 -22.5q190 0 221.5 22.5t31.5 159.5q0 138 -31.5 160.5t-220.5 22.5
q-190 0 -221.5 -22.5t-31.5 -160.5z" />
    <glyph glyph-name="p" unicode="p" horiz-adv-x="1006" 
d="M93 715h538q176 0 232 -43q70 -53 70 -227q0 -173 -69 -226q-57 -44 -233 -44h-318v-175h-220v715zM313 360h318q39 0 59 17q24 20 24 68q0 47 -24 68q-20 17 -59 17h-318v-170z" />
    <glyph glyph-name="q" unicode="q" horiz-adv-x="1200" 
d="M1060 356v-21q0 -47 -2.5 -78t-10.5 -58l109 -63l-86 -150l-86 51q-66 -41 -178 -46q-45 -2 -231 -2q-338 0 -411 55t-73 312q0 258 66 311q72 57 418 57q349 0 419 -55q66 -52 66 -313zM576 174h28h23q79 0 108 6l-196 112l90 159l211 -131v36q0 137 -33 160t-232 23
t-231.5 -22.5t-32.5 -160.5q0 -136 33 -159t232 -23z" />
    <glyph glyph-name="r" unicode="r" horiz-adv-x="1072" 
d="M78 715h640q118 0 167 -43q53 -47 53 -165q0 -92 -22 -136t-77 -66q60 -26 79.5 -52t19.5 -93v-160h-220v128q0 28 -15 47q-19 25 -57 25h-348v-200h-220v715zM298 530v-145h353q36 0 51.5 15.5t15.5 56.5t-16 57t-51 16h-353z" />
    <glyph glyph-name="s" unicode="s" horiz-adv-x="1033" 
d="M505 161q159 0 184 5t25 39q0 41 -35 51.5t-174 10.5q-275 0 -347 40t-72 198q0 146 94 187q72 31 320 31q221 0 280 -12q139 -28 139 -236h-220q0 57 -25 66.5t-173 9.5q-149 0 -172 -5.5t-23 -40.5q0 -37 39 -48t160 -11q272 0 350.5 -43t78.5 -198q0 -143 -88 -183
q-76 -34 -342 -34q-205 0 -266 9q-94 14 -128 65.5t-34 178.5h220q0 -60 26 -70t183 -10z" />
    <glyph glyph-name="t" unicode="t" horiz-adv-x="1037" 
d="M87 530v185h851v-185h-315v-530h-220v530h-316z" />
    <glyph glyph-name="u" unicode="u" horiz-adv-x="1071" 
d="M992 714v-435q0 -194 -85 -244q-77 -46 -370 -46q-292 0 -369 46q-85 51 -85 244v435h220v-435q0 -65 36 -83q43 -22 198 -22q153 0 194 20.5t41 84.5v435h220z" />
    <glyph glyph-name="v" unicode="v" horiz-adv-x="1115" 
d="M285 714h-248l361 -714h334l361 714h-248l-270 -526h-10h-10z" />
    <glyph glyph-name="w" unicode="w" horiz-adv-x="1521" 
d="M1271 714l-198 -528h-24l-162 528h-263l-162 -528h-24l-198 528h-235l277 -714h337l121 438q1 2 5 51.5t10 49.5q7 0 11 -49.5t4 -51.5l122 -438h337l277 714h-235z" />
    <glyph glyph-name="x" unicode="x" horiz-adv-x="1036" 
d="M5 715l327 -350l-327 -365h296l215 240l215 -240h296l-327 365l327 350h-305l-206 -230l-206 230h-305z" />
    <glyph glyph-name="y" unicode="y" horiz-adv-x="1054" 
d="M10 714l402 -467v-247h220v247l408 467h-301l-184 -234q-18 -23 -23 -58.5t-7 -35.5q-4 21 -9.5 48t-20.5 46l-184 234h-301z" />
    <glyph glyph-name="z" unicode="z" horiz-adv-x="1053" 
d="M104 715h853v-175l-494 -355h509v-185h-889v175l488 355h-467v185z" />
    <glyph glyph-name="braceleft" unicode="{" horiz-adv-x="304" 
d="M301 696q-51 0 -72 -21t-21 -75v-194q0 -41 -30 -74q-10 -10 -30 -24q20 -17 30 -28q30 -35 30 -70v-194q0 -50 21.5 -71.5t72.5 -21.5l1 -55q-89 0 -142 32q-64 39 -64 116v194q0 35 -33 70q-11 11 -33 28q13 9 20 15q46 39 46 83v172q0 95 61 138q51 36 144 36z" />
    <glyph glyph-name="bar" unicode="|" horiz-adv-x="200" 
d="M59 739h83v-872h-83v872z" />
    <glyph glyph-name="braceright" unicode="}" horiz-adv-x="304" 
d="M33 696q51 0 72 -21t21 -75v-194q0 -41 30 -74q10 -10 30 -24q-20 -17 -30 -28q-30 -35 -30 -70v-194q0 -50 -21.5 -71.5t-72.5 -21.5l-1 -55q89 0 142 32q64 39 64 116v194q0 35 33 70q11 11 33 28q-13 9 -20 15q-46 39 -46 83v172q0 95 -61 138q-51 36 -144 36z" />
    <glyph glyph-name="nonbreakingspace" unicode="&#xa0;" horiz-adv-x="1149" 
d="M376 714h378l354 -714h-257l-68 119h-436l-68 -119h-257zM582 553h-34l-119 -249h271z" />
    <glyph glyph-name="brokenbar" unicode="&#xa6;" horiz-adv-x="200" 
d="M59 739h83v-872h-83v872z" />
    <glyph glyph-name="section" unicode="&#xa7;" horiz-adv-x="751" 
d="M517 248q38 0 53 14t15 40v26q0 20 -12.5 35t-34.5 15h-319q-28 0 -41.5 -17t-13.5 -45v-22q0 -46 44 -46h309zM724 278q0 -46 -19.5 -77t-56.5 -38q12 -9 18 -17q18 -25 18 -62v-31q0 -55 -44.5 -91t-125.5 -36h-293q-70 0 -114 42t-44 105v10h150v-10q0 -18 18 -25.5
t60 -7.5h177q34 0 45 3q33 9 33 46q0 28 -20.5 42.5t-56.5 14.5h-283q-83 0 -121.5 33.5t-38.5 94.5v67q0 50 26 83q21 26 50 35q-21 23 -25 30q-11 18 -11 45v34q0 55 38.5 91.5t109.5 36.5h313q80 0 120 -43q36 -39 36 -104v-10h-151v10q0 18 -18.5 25.5t-70.5 7.5h-164
q-39 0 -57 -10t-18 -41q0 -30 18 -40.5t57 -10.5h301q63 0 103.5 -36t40.5 -95v-71z" />
    <glyph glyph-name="copyright" unicode="&#xa9;" horiz-adv-x="652" 
d="M432 542q-13 16 -24 23q-33 23 -78 23q-56 0 -88 -33t-32 -77t30 -75q34 -35 90 -35q46 0 79 26q10 8 23 26v-32q-13 -14 -24 -20q-33 -20 -78 -20q-66 0 -106 41q-36 37 -36 89q0 53 35 90q40 42 107 42q41 0 76 -21q11 -7 26 -21v-26zM330 204q-135 0 -215 86
q-73 78 -73 190q0 113 72 192q80 88 216 88q134 0 213 -87q71 -78 71 -191t-70 -191q-78 -87 -214 -87zM330 738q-125 0 -199 -80q-67 -73 -67 -176q0 -102 67 -175q75 -81 199 -81q125 0 198 79q66 72 66 175q0 104 -66 177q-73 81 -198 81z" />
    <glyph glyph-name="ordfeminine" unicode="&#xaa;" horiz-adv-x="1024" 
d="M515 724q259 0 338 -31q100 -39 100 -175v-79h-220q0 73 -31 86.5t-187 13.5t-187 -14t-31 -91h330v-155h-330q0 -77 30.5 -91t187.5 -14t187.5 13t30.5 87h220v-80q0 -135 -100 -174q-79 -31 -338 -31q-308 0 -372.5 56t-64.5 312t60 309q66 58 377 58z" />
    <glyph glyph-name="guillemotleft" unicode="&#xab;" horiz-adv-x="604" 
d="M20 252v50l270 222l60 -73l-213 -172l213 -170l-58 -75zM260 252v50l270 222l60 -73l-213 -172l213 -170l-58 -75z" />
    <glyph glyph-name="logicalnot" unicode="&#xac;" horiz-adv-x="364" 
d="M20 252v50l270 222l60 -73l-213 -172l213 -170l-58 -75z" />
    <glyph glyph-name="registered" unicode="&#xae;" horiz-adv-x="652" 
d="M235 627h128q24 -5 35 -12q35 -22 35 -72q0 -36 -23 -57t-51 -21h-54l132 -138h-28l-130 138h-22v-138h-22v300zM257 487h106q16 4 24 8q24 14 24 44v4q0 35 -25 52q-8 5 -25 10h-104v-118zM330 204q-135 0 -215 86q-73 78 -73 190q0 113 72 192q80 88 216 88
q134 0 213 -87q71 -78 71 -191t-70 -191q-78 -87 -214 -87zM330 738q-125 0 -199 -80q-67 -73 -67 -176q0 -102 67 -175q75 -81 199 -81q125 0 198 79q66 72 66 175q0 104 -66 177q-73 81 -198 81z" />
    <glyph glyph-name="macron" unicode="&#xaf;" horiz-adv-x="450" 
d="M88 -1v714h220v-714h-220zM158 882h-220v-118h220v118zM448 764v118h-220v-118h220z" />
    <glyph glyph-name="degree" unicode="&#xb0;" horiz-adv-x="284" 
d="M43 608q0 32 16.5 48.5t56.5 16.5h60q38 0 54 -17t16 -48v-35q0 -28 -17 -46t-53 -18h-60q-37 0 -55 17.5t-18 46.5v35zM74 574q0 -36 44 -36h54q43 0 43 36v33q0 36 -43 36h-54q-44 0 -44 -36v-33z" />
    <glyph glyph-name="plusminus" unicode="&#xb1;" horiz-adv-x="556" 
d="M68 247h408v-138h-408v138zM54 552h144v145h135v-145h157v-138h-157v-144h-135v144h-144v138z" />
    <glyph glyph-name="twosuperior" unicode="&#xb2;" horiz-adv-x="345" 
d="M58 -1v714h220v-714h-220zM278 764v118h-220v-118h220z" />
    <glyph glyph-name="threesuperior" unicode="&#xb3;" horiz-adv-x="345" 
d="M58 -1v714h220v-714h-220zM278 764v118h-220v-118h220z" />
    <glyph glyph-name="paragraph" unicode="&#xb6;" horiz-adv-x="858" 
d="M566 -56h-167v262h-115q-111 0 -177.5 68.5t-66.5 175.5t67.5 175.5t176.5 68.5h282v-750zM810 -56h-167v750h167v-750z" />
    <glyph glyph-name="periodcentered" unicode="&#xb7;" horiz-adv-x="329" 
d="M74 267v166h193v-166h-193z" />
    <glyph glyph-name="periodcentered" unicode="&#x2219;" horiz-adv-x="329" 
d="M74 267v166h193v-166h-193z" />
    <glyph glyph-name="onesuperior" unicode="&#xb9;" horiz-adv-x="1507" 
d="M1050 715h-220v-492q8 -28 16 -55q0 -10 1 -20q-7 0 -13.5 13t-12.5 26l-376 528h-360v-714h220v493q0 1 -17 55q-1 10 -1 20q7 0 13.5 -13.5t12.5 -25.5l377 -529h360v714zM1120 550q0 43 27.5 70t80.5 27h99q52 0 80 -27t28 -70v-54q0 -44 -28 -71t-80 -27h-99
q-51 0 -79.5 26.5t-28.5 71.5v54zM1361 541q0 47 -54 47h-56q-57 0 -57 -47v-38q0 -47 57 -47h56q54 0 54 47v38zM1105 362h343v-75h-343v75z" />
    <glyph glyph-name="ordmasculine" unicode="&#xba;" horiz-adv-x="1024" 
d="M515 724q259 0 338 -31q100 -39 100 -175v-79h-220q0 73 -31 86.5t-187 13.5t-187 -14t-31 -91h330v-155h-330q0 -77 30.5 -91t187.5 -14t187.5 13t30.5 87h220v-80q0 -135 -100 -174q-79 -31 -338 -31q-308 0 -372.5 56t-64.5 312t60 309q66 58 377 58z" />
    <glyph glyph-name="guillemotright" unicode="&#xbb;" horiz-adv-x="613" 
d="M342 252l-265 -212l-60 72l209 167l-207 168l60 73l263 -218v-50zM591 252l-265 -212l-60 72l208 167l-206 168l60 73l263 -218v-50z" />
    <glyph glyph-name="onequarter" unicode="&#xbc;" horiz-adv-x="533" 
d="M68 394h408v-138h-408v138zM172 31v166h193v-166h-193zM172 452v166h193v-166h-193z" />
    <glyph glyph-name="questiondown" unicode="&#xbf;" horiz-adv-x="450" 
d="M88 -1v714h220v-714h-220zM158 882h-220v-118h220v118zM448 764v118h-220v-118h220z" />
    <glyph glyph-name="Agrave" unicode="&#xc0;" horiz-adv-x="1149" 
d="M376 714h378l354 -714h-257l-68 119h-436l-68 -119h-257zM582 553h-34l-119 -249h271z" />
    <glyph glyph-name="Agrave" unicode="&#x410;" horiz-adv-x="1149" 
d="M376 714h378l354 -714h-257l-68 119h-436l-68 -119h-257zM582 553h-34l-119 -249h271z" />
    <glyph glyph-name="Aacute" unicode="&#xc1;" horiz-adv-x="1043" 
d="M294 285v-112h382q63 0 63 53q0 35 -15.5 47t-48.5 12h-381zM74 0v715h820v-173h-600v-97h444q115 0 168 -52t53 -158q0 -131 -62 -187q-53 -48 -158 -48h-665z" />
    <glyph glyph-name="Aacute" unicode="&#x411;" horiz-adv-x="1043" 
d="M294 285v-112h382q63 0 63 53q0 35 -15.5 47t-48.5 12h-381zM74 0v715h820v-173h-600v-97h444q115 0 168 -52t53 -158q0 -131 -62 -187q-53 -48 -158 -48h-665z" />
    <glyph glyph-name="Acircumflex" unicode="&#xc2;" horiz-adv-x="1044" 
d="M285 286h381q31 0 47.5 -12.5t16.5 -46.5q0 -54 -64 -54h-381v113zM65 715v-715h665q118 0 169 45t51 153q0 125 -99 169q31 14 52 52t21 94q0 127 -70 172q-47 30 -150 30h-639zM285 542h390q27 0 41 -11t14 -37q0 -25 -14.5 -36.5t-40.5 -11.5h-390v96z" />
    <glyph glyph-name="Acircumflex" unicode="&#x412;" horiz-adv-x="1044" 
d="M285 286h381q31 0 47.5 -12.5t16.5 -46.5q0 -54 -64 -54h-381v113zM65 715v-715h665q118 0 169 45t51 153q0 125 -99 169q31 14 52 52t21 94q0 127 -70 172q-47 30 -150 30h-639zM285 542h390q27 0 41 -11t14 -37q0 -25 -14.5 -36.5t-40.5 -11.5h-390v96z" />
    <glyph glyph-name="Atilde" unicode="&#xc3;" horiz-adv-x="823" 
d="M71 715h710h5v-185h-495v-530h-220v715z" />
    <glyph glyph-name="Atilde" unicode="&#x413;" horiz-adv-x="823" 
d="M71 715h710h5v-185h-495v-530h-220v715z" />
    <glyph glyph-name="Adieresis" unicode="&#xc4;" horiz-adv-x="1129" 
d="M121 185q30 0 45.5 111t15.5 419h825v-530h55v-260h-220v30q0 24 -10.5 34.5t-36.5 10.5h-445q-48 0 -48 -45v-30h-220v260h39zM787 185v345h-385q0 -144 -12.5 -236t-31.5 -109h429z" />
    <glyph glyph-name="Adieresis" unicode="&#x414;" horiz-adv-x="1129" 
d="M121 185q30 0 45.5 111t15.5 419h825v-530h55v-260h-220v30q0 24 -10.5 34.5t-36.5 10.5h-445q-48 0 -48 -45v-30h-220v260h39zM787 185v345h-385q0 -144 -12.5 -236t-31.5 -109h429z" />
    <glyph glyph-name="Aring" unicode="&#xc5;" horiz-adv-x="946" 
d="M60 0v715h770v-173h-550v-99h525v-172h-525v-98h550v-173h-770z" />
    <glyph glyph-name="Aring" unicode="&#x415;" horiz-adv-x="946" 
d="M60 0v715h770v-173h-550v-99h525v-172h-525v-98h550v-173h-770z" />
    <glyph glyph-name="AE" unicode="&#xc6;" horiz-adv-x="1623" 
d="M698 715h220v-250h61l248 250h304l-357 -340l403 -375h-320l-278 281h-61v-281h-220v281h-61l-276 -281h-322l403 376l-357 339h306l246 -249h61v249z" />
    <glyph glyph-name="AE" unicode="&#x416;" horiz-adv-x="1623" 
d="M698 715h220v-250h61l248 250h304l-357 -340l403 -375h-320l-278 281h-61v-281h-220v281h-61l-276 -281h-322l403 376l-357 339h306l246 -249h61v249z" />
    <glyph glyph-name="Ccedilla" unicode="&#xc7;" horiz-adv-x="1055" 
d="M413 435v-155h204q68 0 94.5 -10t26.5 -42q0 -30 -28.5 -41.5t-92.5 -11.5q-232 0 -271 13t-39 92h-220q0 -199 62 -242q69 -48 376 -48q259 0 335 30q98 39 98 175q0 67 -3 83q-9 47 -76 79q54 30 70 77q9 26 9 85q0 138 -96 176q-76 30 -337 30q-300 0 -369 -44.5
t-69 -240.5h220q0 75 39 87.5t271 12.5q69 0 95 -10.5t26 -41.5t-27 -42t-94 -11h-204z" />
    <glyph glyph-name="Ccedilla" unicode="&#x417;" horiz-adv-x="1055" 
d="M413 435v-155h204q68 0 94.5 -10t26.5 -42q0 -30 -28.5 -41.5t-92.5 -11.5q-232 0 -271 13t-39 92h-220q0 -199 62 -242q69 -48 376 -48q259 0 335 30q98 39 98 175q0 67 -3 83q-9 47 -76 79q54 30 70 77q9 26 9 85q0 138 -96 176q-76 30 -337 30q-300 0 -369 -44.5
t-69 -240.5h220q0 75 39 87.5t271 12.5q69 0 95 -10.5t26 -41.5t-27 -42t-94 -11h-204z" />
    <glyph glyph-name="Egrave" unicode="&#xc8;" horiz-adv-x="1199" 
d="M92 714h220v-492q-8 -28 -16 -55q-1 -10 -1 -20q7 0 13.5 13t12.5 26l376 528h360v-714h-220v493q0 1 17 55q0 10 1 20q-7 0 -13.5 -13.5t-12.5 -25.5l-377 -529h-360v714z" />
    <glyph glyph-name="Egrave" unicode="&#x418;" horiz-adv-x="1199" 
d="M92 714h220v-492q-8 -28 -16 -55q-1 -10 -1 -20q7 0 13.5 13t12.5 26l376 528h360v-714h-220v493q0 1 17 55q0 10 1 20q-7 0 -13.5 -13.5t-12.5 -25.5l-377 -529h-360v714z" />
    <glyph glyph-name="Eacute" unicode="&#xc9;" horiz-adv-x="1155" 
d="M84 715h220v-492q-8 -28 -16 -55q-1 -10 -1 -20q7 0 13.5 13t12.5 26l376 528h360v-714h-220v493q0 1 17 55q0 10 1 20q-7 0 -13.5 -13.5t-12.5 -25.5l-377 -529h-360v714zM766 854l-354 -1v-98h354v99z" />
    <glyph glyph-name="Eacute" unicode="&#x419;" horiz-adv-x="1155" 
d="M84 715h220v-492q-8 -28 -16 -55q-1 -10 -1 -20q7 0 13.5 13t12.5 26l376 528h360v-714h-220v493q0 1 17 55q0 10 1 20q-7 0 -13.5 -13.5t-12.5 -25.5l-377 -529h-360v714zM766 854l-354 -1v-98h354v99z" />
    <glyph glyph-name="Ecircumflex" unicode="&#xca;" horiz-adv-x="1104" 
d="M105 714h220v-250h115l249 250h303l-357 -340l403 -373h-319l-279 278h-115v-279h-220v714z" />
    <glyph glyph-name="Ecircumflex" unicode="&#x41a;" horiz-adv-x="1104" 
d="M105 714h220v-250h115l249 250h303l-357 -340l403 -373h-319l-279 278h-115v-279h-220v714z" />
    <glyph glyph-name="Edieresis" unicode="&#xcb;" horiz-adv-x="1125" 
d="M997 715v-715h-220v530h-391q0 -310 -53 -426q-48 -104 -167 -104h-104v185q78 0 91 66t13 464h831z" />
    <glyph glyph-name="Edieresis" unicode="&#x41b;" horiz-adv-x="1125" 
d="M997 715v-715h-220v530h-391q0 -310 -53 -426q-48 -104 -167 -104h-104v185q78 0 91 66t13 464h831z" />
    <glyph glyph-name="Igrave" unicode="&#xcc;" 
d="M78 713v-714h220v501q0 9 -3 23q-7 32 -7 33q0 7 6 7q4 0 9 -10t11 -23l274 -531h180l254 529q4 10 10 21.5t10 11.5q6 0 6 -8q0 -4 -5 -23t-5 -32v-499h220v714h-375l-188 -401q-6 -39 -9.5 -62.5t-7.5 -23.5q-5 0 -9.5 39.5t-7.5 46.5l-188 401h-395z" />
    <glyph glyph-name="Igrave" unicode="&#x41c;" 
d="M78 713v-714h220v501q0 9 -3 23q-7 32 -7 33q0 7 6 7q4 0 9 -10t11 -23l274 -531h180l254 529q4 10 10 21.5t10 11.5q6 0 6 -8q0 -4 -5 -23t-5 -32v-499h220v714h-375l-188 -401q-6 -39 -9.5 -62.5t-7.5 -23.5q-5 0 -9.5 39.5t-7.5 46.5l-188 401h-395z" />
    <glyph glyph-name="Iacute" unicode="&#xcd;" horiz-adv-x="1117" 
d="M86 714h220v-250h475v250h220v-714h-220v279h-475v-279h-220v714z" />
    <glyph glyph-name="Iacute" unicode="&#x41d;" horiz-adv-x="1117" 
d="M86 714h220v-250h475v250h220v-714h-220v279h-475v-279h-220v714z" />
    <glyph glyph-name="Icircumflex" unicode="&#xce;" horiz-adv-x="1108" 
d="M1031 357q0 -261 -63 -312q-68 -55 -410 -55q-250 0 -328 18q-98 23 -124 100q-20 59 -20 249q0 261 62 312q68 56 410 56q341 0 409 -55q64 -52 64 -313zM306 357q0 -137 31.5 -159.5t220.5 -22.5q190 0 221.5 22.5t31.5 159.5q0 138 -31.5 160.5t-220.5 22.5
q-190 0 -221.5 -22.5t-31.5 -160.5z" />
    <glyph glyph-name="Icircumflex" unicode="&#x41e;" horiz-adv-x="1108" 
d="M1031 357q0 -261 -63 -312q-68 -55 -410 -55q-250 0 -328 18q-98 23 -124 100q-20 59 -20 249q0 261 62 312q68 56 410 56q341 0 409 -55q64 -52 64 -313zM306 357q0 -137 31.5 -159.5t220.5 -22.5q190 0 221.5 22.5t31.5 159.5q0 138 -31.5 160.5t-220.5 22.5
q-190 0 -221.5 -22.5t-31.5 -160.5z" />
    <glyph glyph-name="Idieresis" unicode="&#xcf;" horiz-adv-x="1138" 
d="M104 715h935v-715h-220v530h-495v-530h-220v715z" />
    <glyph glyph-name="Idieresis" unicode="&#x41f;" horiz-adv-x="1138" 
d="M104 715h935v-715h-220v530h-495v-530h-220v715z" />
    <glyph glyph-name="Eth" unicode="&#xd0;" horiz-adv-x="1006" 
d="M93 715h538q176 0 232 -43q70 -53 70 -227q0 -173 -69 -226q-57 -44 -233 -44h-318v-175h-220v715zM313 360h318q39 0 59 17q24 20 24 68q0 47 -24 68q-20 17 -59 17h-318v-170z" />
    <glyph glyph-name="Eth" unicode="&#x420;" horiz-adv-x="1006" 
d="M93 715h538q176 0 232 -43q70 -53 70 -227q0 -173 -69 -226q-57 -44 -233 -44h-318v-175h-220v715zM313 360h318q39 0 59 17q24 20 24 68q0 47 -24 68q-20 17 -59 17h-318v-170z" />
    <glyph glyph-name="Ntilde" unicode="&#xd1;" horiz-adv-x="1025" 
d="M509 725q306 0 377 -51q62 -44 62 -234h-221q0 62 -33 79q-41 21 -185 21q-161 0 -189 -25t-28 -158q0 -132 28 -157t189 -25q146 0 182.5 17.5t36.5 82.5h220q0 -191 -60 -234q-71 -51 -379 -51t-372.5 56t-64.5 312q0 255 62 309q67 58 375 58z" />
    <glyph glyph-name="Ntilde" unicode="&#x421;" horiz-adv-x="1025" 
d="M509 725q306 0 377 -51q62 -44 62 -234h-221q0 62 -33 79q-41 21 -185 21q-161 0 -189 -25t-28 -158q0 -132 28 -157t189 -25q146 0 182.5 17.5t36.5 82.5h220q0 -191 -60 -234q-71 -51 -379 -51t-372.5 56t-64.5 312q0 255 62 309q67 58 375 58z" />
    <glyph glyph-name="Ograve" unicode="&#xd2;" horiz-adv-x="977" 
d="M54 530v185h851v-185h-315v-530h-220v530h-316z" />
    <glyph glyph-name="Ograve" unicode="&#x422;" horiz-adv-x="977" 
d="M54 530v185h851v-185h-315v-530h-220v530h-316z" />
    <glyph glyph-name="Oacute" unicode="&#xd3;" horiz-adv-x="1041" 
d="M767 715h248l-256 -455q-73 -131 -84 -147q-41 -61 -92 -85q-59 -28 -164 -28h-228v185h239q23 0 30.5 3.5t15.5 18.5l-465 508h305l253 -298q3 -3 14 -43q5 -17 9 -17q3 0 4.5 31t9.5 44z" />
    <glyph glyph-name="Oacute" unicode="&#x423;" horiz-adv-x="1041" 
d="M767 715h248l-256 -455q-73 -131 -84 -147q-41 -61 -92 -85q-59 -28 -164 -28h-228v185h239q23 0 30.5 3.5t15.5 18.5l-465 508h305l253 -298q3 -3 14 -43q5 -17 9 -17q3 0 4.5 31t9.5 44z" />
    <glyph glyph-name="Ocircumflex" unicode="&#xd4;" horiz-adv-x="1379" 
d="M1050 645q104 0 164 -64q68 -73 68 -221q0 -147 -67 -220q-60 -65 -165 -65h-273v-75h-220v75h-273q-105 0 -165 65q-67 73 -67 220t68 220q60 65 164 65h273v70h220v-70h273zM557 460h-200q-40 0 -60 -21q-25 -26 -25 -85t24 -84q21 -22 61 -22h200v212zM777 460v-212
h200q40 0 60 21q25 26 25 85q0 58 -22.5 82t-62.5 24h-200z" />
    <glyph glyph-name="Ocircumflex" unicode="&#x424;" horiz-adv-x="1379" 
d="M1050 645q104 0 164 -64q68 -73 68 -221q0 -147 -67 -220q-60 -65 -165 -65h-273v-75h-220v75h-273q-105 0 -165 65q-67 73 -67 220t68 220q60 65 164 65h273v70h220v-70h273zM557 460h-200q-40 0 -60 -21q-25 -26 -25 -85t24 -84q21 -22 61 -22h200v212zM777 460v-212
h200q40 0 60 21q25 26 25 85q0 58 -22.5 82t-62.5 24h-200z" />
    <glyph glyph-name="Otilde" unicode="&#xd5;" horiz-adv-x="1027" 
d="M2 715l327 -350l-327 -365h296l215 240l215 -240h296l-327 365l327 350h-305l-206 -230l-206 230h-305z" />
    <glyph glyph-name="Otilde" unicode="&#x425;" horiz-adv-x="1027" 
d="M2 715l327 -350l-327 -365h296l215 240l215 -240h296l-327 365l327 350h-305l-206 -230l-206 230h-305z" />
    <glyph glyph-name="Odieresis" unicode="&#xd6;" horiz-adv-x="1145" 
d="M326 185h450v530h220v-530h70v-300h-220v70q0 24 -10.5 34.5t-36.5 10.5h-693v715h220v-530z" />
    <glyph glyph-name="Odieresis" unicode="&#x426;" horiz-adv-x="1145" 
d="M326 185h450v530h220v-530h70v-300h-220v70q0 24 -10.5 34.5t-36.5 10.5h-693v715h220v-530z" />
    <glyph glyph-name="multiply" unicode="&#xd7;" horiz-adv-x="998" 
d="M80 715h220v-267q0 -31 22 -52t64 -21h319v340h220v-715h-220v190h-319q-161 0 -229 52q-77 59 -77 206v267z" />
    <glyph glyph-name="multiply" unicode="&#x427;" horiz-adv-x="998" 
d="M80 715h220v-267q0 -31 22 -52t64 -21h319v340h220v-715h-220v190h-319q-161 0 -229 52q-77 59 -77 206v267z" />
    <glyph glyph-name="Oslash" unicode="&#xd8;" horiz-adv-x="1475" 
d="M120 715h220v-530h295v530h220v-530h295v530h205h15v-715h-1250v715z" />
    <glyph glyph-name="Oslash" unicode="&#x428;" horiz-adv-x="1475" 
d="M120 715h220v-530h295v530h220v-530h295v530h205h15v-715h-1250v715z" />
    <glyph glyph-name="Ugrave" unicode="&#xd9;" horiz-adv-x="1493" 
d="M120 715h220v-530h295v530h220v-530h295v530h205h15v-530h70v-300h-220v70q0 24 -10.5 34.5t-36.5 10.5h-1053v715z" />
    <glyph glyph-name="Ugrave" unicode="&#x429;" horiz-adv-x="1493" 
d="M120 715h220v-530h295v530h220v-530h295v530h205h15v-530h70v-300h-220v70q0 24 -10.5 34.5t-36.5 10.5h-1053v715z" />
    <glyph glyph-name="Uacute" unicode="&#xda;" horiz-adv-x="1063" 
d="M143 0v540h-80v175h300v-175h318q176 0 232 -43q70 -54 70 -227q0 -174 -69 -227q-56 -43 -233 -43h-538zM363 355v-170h318q40 0 59 16q24 20 24 69q0 48 -22 66.5t-62 18.5h-317z" />
    <glyph glyph-name="Uacute" unicode="&#x42a;" horiz-adv-x="1063" 
d="M143 0v540h-80v175h300v-175h318q176 0 232 -43q70 -54 70 -227q0 -174 -69 -227q-56 -43 -233 -43h-538zM363 355v-170h318q40 0 59 16q24 20 24 69q0 48 -22 66.5t-62 18.5h-317z" />
    <glyph glyph-name="Ucircumflex" unicode="&#xdb;" horiz-adv-x="1308" 
d="M1022 715h220v-715h-220v715zM61 0v715h220v-175h318q175 0 232 -44q70 -54 70 -226q0 -173 -69 -226q-57 -44 -233 -44h-538zM281 355v-170h318q40 0 59 16q23 19 23 68t-21 67.5t-61 18.5h-318z" />
    <glyph glyph-name="Ucircumflex" unicode="&#x42b;" horiz-adv-x="1308" 
d="M1022 715h220v-715h-220v715zM61 0v715h220v-175h318q175 0 232 -44q70 -54 70 -226q0 -173 -69 -226q-57 -44 -233 -44h-538zM281 355v-170h318q40 0 59 16q23 19 23 68t-21 67.5t-61 18.5h-318z" />
    <glyph glyph-name="Udieresis" unicode="&#xdc;" horiz-adv-x="979" 
d="M75 0v715h220v-175h318q176 0 233 -43q71 -54 71 -227q0 -174 -70 -227q-57 -43 -234 -43h-538zM295 355v-170h318q40 0 59 16q24 20 24 69q0 47 -24 68q-20 17 -59 17h-318z" />
    <glyph glyph-name="Udieresis" unicode="&#x42c;" horiz-adv-x="979" 
d="M75 0v715h220v-175h318q176 0 233 -43q71 -54 71 -227q0 -174 -70 -227q-57 -43 -234 -43h-538zM295 355v-170h318q40 0 59 16q24 20 24 69q0 47 -24 68q-20 17 -59 17h-318z" />
    <glyph glyph-name="Yacute" unicode="&#xdd;" horiz-adv-x="1024" 
d="M516 724q-259 0 -338 -31q-100 -39 -100 -175v-79h220q0 73 31 86.5t187 13.5t187 -14t31 -91h-330v-155h330q0 -77 -30.5 -91t-187.5 -14t-187.5 13t-30.5 87h-220v-80q0 -135 100 -174q79 -31 338 -31q308 0 372.5 56t64.5 312t-60 309q-66 58 -377 58z" />
    <glyph glyph-name="Yacute" unicode="&#x42d;" horiz-adv-x="1024" 
d="M516 724q-259 0 -338 -31q-100 -39 -100 -175v-79h220q0 73 31 86.5t187 13.5t187 -14t31 -91h-330v-155h330q0 -77 -30.5 -91t-187.5 -14t-187.5 13t-30.5 87h-220v-80q0 -135 100 -174q79 -31 338 -31q308 0 372.5 56t64.5 312t-60 309q-66 58 -377 58z" />
    <glyph glyph-name="Thorn" unicode="&#xde;" 
d="M352 455h-118v260h-220v-715h220v270h118q0 -189 75.5 -234.5t396.5 -45.5q342 0 407.5 53t65.5 314t-63 312q-69 56 -410 56q-316 0 -394 -45t-78 -225zM825 540q176 0 214 -27t38 -156q0 -128 -37.5 -154.5t-214.5 -26.5q-179 0 -216 26t-37 155q0 127 39 155t214 28z
" />
    <glyph glyph-name="Thorn" unicode="&#x42e;" 
d="M352 455h-118v260h-220v-715h220v270h118q0 -189 75.5 -234.5t396.5 -45.5q342 0 407.5 53t65.5 314t-63 312q-69 56 -410 56q-316 0 -394 -45t-78 -225zM825 540q176 0 214 -27t38 -156q0 -128 -37.5 -154.5t-214.5 -26.5q-179 0 -216 26t-37 155q0 127 39 155t214 28z
" />
    <glyph glyph-name="germandbls" unicode="&#xdf;" horiz-adv-x="986" 
d="M920 715v-715h-220v200h-348q-37 0 -54.5 -22t-17.5 -50v-128h-220v160q0 65 21 94q18 25 78 51q-54 21 -76.5 66t-22.5 136q0 123 65 171q50 37 155 37h640zM700 530h-353q-36 0 -51.5 -15.5t-15.5 -57.5q0 -40 16 -56t51 -16h353v145z" />
    <glyph glyph-name="germandbls" unicode="&#x42f;" horiz-adv-x="986" 
d="M920 715v-715h-220v200h-348q-37 0 -54.5 -22t-17.5 -50v-128h-220v160q0 65 21 94q18 25 78 51q-54 21 -76.5 66t-22.5 136q0 123 65 171q50 37 155 37h640zM700 530h-353q-36 0 -51.5 -15.5t-15.5 -57.5q0 -40 16 -56t51 -16h353v145z" />
    <glyph glyph-name="agrave" unicode="&#xe0;" horiz-adv-x="1149" 
d="M376 714h378l354 -714h-257l-68 119h-436l-68 -119h-257zM582 553h-34l-119 -249h271z" />
    <glyph glyph-name="agrave" unicode="&#x430;" horiz-adv-x="1149" 
d="M376 714h378l354 -714h-257l-68 119h-436l-68 -119h-257zM582 553h-34l-119 -249h271z" />
    <glyph glyph-name="aacute" unicode="&#xe1;" horiz-adv-x="1043" 
d="M294 285v-112h382q63 0 63 53q0 35 -15.5 47t-48.5 12h-381zM74 0v715h820v-173h-600v-97h444q115 0 168 -52t53 -158q0 -131 -62 -187q-53 -48 -158 -48h-665z" />
    <glyph glyph-name="aacute" unicode="&#x431;" horiz-adv-x="1043" 
d="M294 285v-112h382q63 0 63 53q0 35 -15.5 47t-48.5 12h-381zM74 0v715h820v-173h-600v-97h444q115 0 168 -52t53 -158q0 -131 -62 -187q-53 -48 -158 -48h-665z" />
    <glyph glyph-name="acircumflex" unicode="&#xe2;" horiz-adv-x="1044" 
d="M285 286h381q31 0 47.5 -12.5t16.5 -46.5q0 -54 -64 -54h-381v113zM65 715v-715h665q118 0 169 45t51 153q0 125 -99 169q31 14 52 52t21 94q0 127 -70 172q-47 30 -150 30h-639zM285 542h390q27 0 41 -11t14 -37q0 -25 -14.5 -36.5t-40.5 -11.5h-390v96z" />
    <glyph glyph-name="acircumflex" unicode="&#x432;" horiz-adv-x="1044" 
d="M285 286h381q31 0 47.5 -12.5t16.5 -46.5q0 -54 -64 -54h-381v113zM65 715v-715h665q118 0 169 45t51 153q0 125 -99 169q31 14 52 52t21 94q0 127 -70 172q-47 30 -150 30h-639zM285 542h390q27 0 41 -11t14 -37q0 -25 -14.5 -36.5t-40.5 -11.5h-390v96z" />
    <glyph glyph-name="atilde" unicode="&#xe3;" horiz-adv-x="823" 
d="M71 715h710h5v-185h-495v-530h-220v715z" />
    <glyph glyph-name="atilde" unicode="&#x433;" horiz-adv-x="823" 
d="M71 715h710h5v-185h-495v-530h-220v715z" />
    <glyph glyph-name="adieresis" unicode="&#xe4;" horiz-adv-x="1129" 
d="M121 185q30 0 45.5 111t15.5 419h825v-530h55v-260h-220v30q0 24 -10.5 34.5t-36.5 10.5h-445q-48 0 -48 -45v-30h-220v260h39zM787 185v345h-385q0 -144 -12.5 -236t-31.5 -109h429z" />
    <glyph glyph-name="adieresis" unicode="&#x434;" horiz-adv-x="1129" 
d="M121 185q30 0 45.5 111t15.5 419h825v-530h55v-260h-220v30q0 24 -10.5 34.5t-36.5 10.5h-445q-48 0 -48 -45v-30h-220v260h39zM787 185v345h-385q0 -144 -12.5 -236t-31.5 -109h429z" />
    <glyph glyph-name="aring" unicode="&#xe5;" horiz-adv-x="946" 
d="M60 0v715h770v-173h-550v-99h525v-172h-525v-98h550v-173h-770z" />
    <glyph glyph-name="aring" unicode="&#x435;" horiz-adv-x="946" 
d="M60 0v715h770v-173h-550v-99h525v-172h-525v-98h550v-173h-770z" />
    <glyph glyph-name="ae" unicode="&#xe6;" horiz-adv-x="1623" 
d="M698 715h220v-250h61l248 250h304l-357 -340l403 -375h-320l-278 281h-61v-281h-220v281h-61l-276 -281h-322l403 376l-357 339h306l246 -249h61v249z" />
    <glyph glyph-name="ae" unicode="&#x436;" horiz-adv-x="1623" 
d="M698 715h220v-250h61l248 250h304l-357 -340l403 -375h-320l-278 281h-61v-281h-220v281h-61l-276 -281h-322l403 376l-357 339h306l246 -249h61v249z" />
    <glyph glyph-name="ccedilla" unicode="&#xe7;" horiz-adv-x="1055" 
d="M413 435v-155h204q68 0 94.5 -10t26.5 -42q0 -30 -28.5 -41.5t-92.5 -11.5q-232 0 -271 13t-39 92h-220q0 -199 62 -242q69 -48 376 -48q259 0 335 30q98 39 98 175q0 67 -3 83q-9 47 -76 79q54 30 70 77q9 26 9 85q0 138 -96 176q-76 30 -337 30q-300 0 -369 -44.5
t-69 -240.5h220q0 75 39 87.5t271 12.5q69 0 95 -10.5t26 -41.5t-27 -42t-94 -11h-204z" />
    <glyph glyph-name="ccedilla" unicode="&#x437;" horiz-adv-x="1055" 
d="M413 435v-155h204q68 0 94.5 -10t26.5 -42q0 -30 -28.5 -41.5t-92.5 -11.5q-232 0 -271 13t-39 92h-220q0 -199 62 -242q69 -48 376 -48q259 0 335 30q98 39 98 175q0 67 -3 83q-9 47 -76 79q54 30 70 77q9 26 9 85q0 138 -96 176q-76 30 -337 30q-300 0 -369 -44.5
t-69 -240.5h220q0 75 39 87.5t271 12.5q69 0 95 -10.5t26 -41.5t-27 -42t-94 -11h-204z" />
    <glyph glyph-name="egrave" unicode="&#xe8;" horiz-adv-x="1199" 
d="M92 714h220v-492q-8 -28 -16 -55q-1 -10 -1 -20q7 0 13.5 13t12.5 26l376 528h360v-714h-220v493q0 1 17 55q0 10 1 20q-7 0 -13.5 -13.5t-12.5 -25.5l-377 -529h-360v714z" />
    <glyph glyph-name="egrave" unicode="&#x438;" horiz-adv-x="1199" 
d="M92 714h220v-492q-8 -28 -16 -55q-1 -10 -1 -20q7 0 13.5 13t12.5 26l376 528h360v-714h-220v493q0 1 17 55q0 10 1 20q-7 0 -13.5 -13.5t-12.5 -25.5l-377 -529h-360v714z" />
    <glyph glyph-name="eacute" unicode="&#xe9;" horiz-adv-x="1155" 
d="M84 715h220v-492q-8 -28 -16 -55q-1 -10 -1 -20q7 0 13.5 13t12.5 26l376 528h360v-714h-220v493q0 1 17 55q0 10 1 20q-7 0 -13.5 -13.5t-12.5 -25.5l-377 -529h-360v714zM766 854l-354 -1v-98h354v99z" />
    <glyph glyph-name="eacute" unicode="&#x439;" horiz-adv-x="1155" 
d="M84 715h220v-492q-8 -28 -16 -55q-1 -10 -1 -20q7 0 13.5 13t12.5 26l376 528h360v-714h-220v493q0 1 17 55q0 10 1 20q-7 0 -13.5 -13.5t-12.5 -25.5l-377 -529h-360v714zM766 854l-354 -1v-98h354v99z" />
    <glyph glyph-name="ecircumflex" unicode="&#xea;" horiz-adv-x="1104" 
d="M105 714h220v-250h115l249 250h303l-357 -340l403 -373h-319l-279 278h-115v-279h-220v714z" />
    <glyph glyph-name="ecircumflex" unicode="&#x43a;" horiz-adv-x="1104" 
d="M105 714h220v-250h115l249 250h303l-357 -340l403 -373h-319l-279 278h-115v-279h-220v714z" />
    <glyph glyph-name="edieresis" unicode="&#xeb;" horiz-adv-x="1125" 
d="M997 715v-715h-220v530h-391q0 -310 -53 -426q-48 -104 -167 -104h-104v185q78 0 91 66t13 464h831z" />
    <glyph glyph-name="edieresis" unicode="&#x43b;" horiz-adv-x="1125" 
d="M997 715v-715h-220v530h-391q0 -310 -53 -426q-48 -104 -167 -104h-104v185q78 0 91 66t13 464h831z" />
    <glyph glyph-name="igrave" unicode="&#xec;" 
d="M78 713v-714h220v501q0 9 -3 23q-7 32 -7 33q0 7 6 7q4 0 9 -10t11 -23l274 -531h180l254 529q4 10 10 21.5t10 11.5q6 0 6 -8q0 -4 -5 -23t-5 -32v-499h220v714h-375l-188 -401q-6 -39 -9.5 -62.5t-7.5 -23.5q-5 0 -9.5 39.5t-7.5 46.5l-188 401h-395z" />
    <glyph glyph-name="igrave" unicode="&#x43c;" 
d="M78 713v-714h220v501q0 9 -3 23q-7 32 -7 33q0 7 6 7q4 0 9 -10t11 -23l274 -531h180l254 529q4 10 10 21.5t10 11.5q6 0 6 -8q0 -4 -5 -23t-5 -32v-499h220v714h-375l-188 -401q-6 -39 -9.5 -62.5t-7.5 -23.5q-5 0 -9.5 39.5t-7.5 46.5l-188 401h-395z" />
    <glyph glyph-name="iacute" unicode="&#xed;" horiz-adv-x="1117" 
d="M86 714h220v-250h475v250h220v-714h-220v279h-475v-279h-220v714z" />
    <glyph glyph-name="iacute" unicode="&#x43d;" horiz-adv-x="1117" 
d="M86 714h220v-250h475v250h220v-714h-220v279h-475v-279h-220v714z" />
    <glyph glyph-name="icircumflex" unicode="&#xee;" horiz-adv-x="1108" 
d="M1031 357q0 -261 -63 -312q-68 -55 -410 -55q-250 0 -328 18q-98 23 -124 100q-20 59 -20 249q0 261 62 312q68 56 410 56q341 0 409 -55q64 -52 64 -313zM306 357q0 -137 31.5 -159.5t220.5 -22.5q190 0 221.5 22.5t31.5 159.5q0 138 -31.5 160.5t-220.5 22.5
q-190 0 -221.5 -22.5t-31.5 -160.5z" />
    <glyph glyph-name="icircumflex" unicode="&#x43e;" horiz-adv-x="1108" 
d="M1031 357q0 -261 -63 -312q-68 -55 -410 -55q-250 0 -328 18q-98 23 -124 100q-20 59 -20 249q0 261 62 312q68 56 410 56q341 0 409 -55q64 -52 64 -313zM306 357q0 -137 31.5 -159.5t220.5 -22.5q190 0 221.5 22.5t31.5 159.5q0 138 -31.5 160.5t-220.5 22.5
q-190 0 -221.5 -22.5t-31.5 -160.5z" />
    <glyph glyph-name="idieresis" unicode="&#xef;" horiz-adv-x="1138" 
d="M104 715h935v-715h-220v530h-495v-530h-220v715z" />
    <glyph glyph-name="idieresis" unicode="&#x43f;" horiz-adv-x="1138" 
d="M104 715h935v-715h-220v530h-495v-530h-220v715z" />
    <glyph glyph-name="eth" unicode="&#xf0;" horiz-adv-x="1006" 
d="M93 715h538q176 0 232 -43q70 -53 70 -227q0 -173 -69 -226q-57 -44 -233 -44h-318v-175h-220v715zM313 360h318q39 0 59 17q24 20 24 68q0 47 -24 68q-20 17 -59 17h-318v-170z" />
    <glyph glyph-name="eth" unicode="&#x440;" horiz-adv-x="1006" 
d="M93 715h538q176 0 232 -43q70 -53 70 -227q0 -173 -69 -226q-57 -44 -233 -44h-318v-175h-220v715zM313 360h318q39 0 59 17q24 20 24 68q0 47 -24 68q-20 17 -59 17h-318v-170z" />
    <glyph glyph-name="ntilde" unicode="&#xf1;" horiz-adv-x="1025" 
d="M509 725q306 0 377 -51q62 -44 62 -234h-221q0 62 -33 79q-41 21 -185 21q-161 0 -189 -25t-28 -158q0 -132 28 -157t189 -25q146 0 182.5 17.5t36.5 82.5h220q0 -191 -60 -234q-71 -51 -379 -51t-372.5 56t-64.5 312q0 255 62 309q67 58 375 58z" />
    <glyph glyph-name="ntilde" unicode="&#x441;" horiz-adv-x="1025" 
d="M509 725q306 0 377 -51q62 -44 62 -234h-221q0 62 -33 79q-41 21 -185 21q-161 0 -189 -25t-28 -158q0 -132 28 -157t189 -25q146 0 182.5 17.5t36.5 82.5h220q0 -191 -60 -234q-71 -51 -379 -51t-372.5 56t-64.5 312q0 255 62 309q67 58 375 58z" />
    <glyph glyph-name="ograve" unicode="&#xf2;" horiz-adv-x="977" 
d="M54 530v185h851v-185h-315v-530h-220v530h-316z" />
    <glyph glyph-name="ograve" unicode="&#x442;" horiz-adv-x="977" 
d="M54 530v185h851v-185h-315v-530h-220v530h-316z" />
    <glyph glyph-name="oacute" unicode="&#xf3;" horiz-adv-x="1112" 
d="M29 715h305l306 -298q3 -3 14 -43q5 -17 9 -17q3 0 4.5 31t9.5 44l161 283h248l-256 -455q-73 -131 -84 -147q-41 -61 -92 -85q-59 -28 -164 -28h-357v185h368q23 0 30.5 3.5t15.5 18.5z" />
    <glyph glyph-name="oacute" unicode="&#x443;" horiz-adv-x="1112" 
d="M29 715h305l306 -298q3 -3 14 -43q5 -17 9 -17q3 0 4.5 31t9.5 44l161 283h248l-256 -455q-73 -131 -84 -147q-41 -61 -92 -85q-59 -28 -164 -28h-357v185h368q23 0 30.5 3.5t15.5 18.5z" />
    <glyph glyph-name="ocircumflex" unicode="&#xf4;" horiz-adv-x="1379" 
d="M1050 645q104 0 164 -64q68 -73 68 -221q0 -147 -67 -220q-60 -65 -165 -65h-273v-75h-220v75h-273q-105 0 -165 65q-67 73 -67 220t68 220q60 65 164 65h273v70h220v-70h273zM557 460h-200q-40 0 -60 -21q-25 -26 -25 -85t24 -84q21 -22 61 -22h200v212zM777 460v-212
h200q40 0 60 21q25 26 25 85q0 58 -22.5 82t-62.5 24h-200z" />
    <glyph glyph-name="ocircumflex" unicode="&#x444;" horiz-adv-x="1379" 
d="M1050 645q104 0 164 -64q68 -73 68 -221q0 -147 -67 -220q-60 -65 -165 -65h-273v-75h-220v75h-273q-105 0 -165 65q-67 73 -67 220t68 220q60 65 164 65h273v70h220v-70h273zM557 460h-200q-40 0 -60 -21q-25 -26 -25 -85t24 -84q21 -22 61 -22h200v212zM777 460v-212
h200q40 0 60 21q25 26 25 85q0 58 -22.5 82t-62.5 24h-200z" />
    <glyph glyph-name="otilde" unicode="&#xf5;" horiz-adv-x="1027" 
d="M2 715l327 -350l-327 -365h296l215 240l215 -240h296l-327 365l327 350h-305l-206 -230l-206 230h-305z" />
    <glyph glyph-name="otilde" unicode="&#x445;" horiz-adv-x="1027" 
d="M2 715l327 -350l-327 -365h296l215 240l215 -240h296l-327 365l327 350h-305l-206 -230l-206 230h-305z" />
    <glyph glyph-name="odieresis" unicode="&#xf6;" horiz-adv-x="1145" 
d="M326 185h450v530h220v-530h70v-300h-220v70q0 24 -10.5 34.5t-36.5 10.5h-693v715h220v-530z" />
    <glyph glyph-name="odieresis" unicode="&#x446;" horiz-adv-x="1145" 
d="M326 185h450v530h220v-530h70v-300h-220v70q0 24 -10.5 34.5t-36.5 10.5h-693v715h220v-530z" />
    <glyph glyph-name="divide" unicode="&#xf7;" horiz-adv-x="998" 
d="M80 715h220v-267q0 -31 22 -52t64 -21h319v340h220v-715h-220v190h-319q-161 0 -229 52q-77 59 -77 206v267z" />
    <glyph glyph-name="divide" unicode="&#x447;" horiz-adv-x="998" 
d="M80 715h220v-267q0 -31 22 -52t64 -21h319v340h220v-715h-220v190h-319q-161 0 -229 52q-77 59 -77 206v267z" />
    <glyph glyph-name="oslash" unicode="&#xf8;" horiz-adv-x="1475" 
d="M120 715h220v-530h295v530h220v-530h295v530h205h15v-715h-1250v715z" />
    <glyph glyph-name="oslash" unicode="&#x448;" horiz-adv-x="1475" 
d="M120 715h220v-530h295v530h220v-530h295v530h205h15v-715h-1250v715z" />
    <glyph glyph-name="ugrave" unicode="&#xf9;" horiz-adv-x="1493" 
d="M120 715h220v-530h295v530h220v-530h295v530h205h15v-530h70v-300h-220v70q0 24 -10.5 34.5t-36.5 10.5h-1053v715z" />
    <glyph glyph-name="ugrave" unicode="&#x449;" horiz-adv-x="1493" 
d="M120 715h220v-530h295v530h220v-530h295v530h205h15v-530h70v-300h-220v70q0 24 -10.5 34.5t-36.5 10.5h-1053v715z" />
    <glyph glyph-name="uacute" unicode="&#xfa;" horiz-adv-x="1063" 
d="M143 0v540h-80v175h300v-175h318q176 0 232 -43q70 -54 70 -227q0 -174 -69 -227q-56 -43 -233 -43h-538zM363 355v-170h318q40 0 59 16q24 20 24 69q0 48 -22 66.5t-62 18.5h-317z" />
    <glyph glyph-name="uacute" unicode="&#x44a;" horiz-adv-x="1063" 
d="M143 0v540h-80v175h300v-175h318q176 0 232 -43q70 -54 70 -227q0 -174 -69 -227q-56 -43 -233 -43h-538zM363 355v-170h318q40 0 59 16q24 20 24 69q0 48 -22 66.5t-62 18.5h-317z" />
    <glyph glyph-name="ucircumflex" unicode="&#xfb;" horiz-adv-x="1308" 
d="M1022 715h220v-715h-220v715zM61 0v715h220v-175h318q175 0 232 -44q70 -54 70 -226q0 -173 -69 -226q-57 -44 -233 -44h-538zM281 355v-170h318q40 0 59 16q23 19 23 68t-21 67.5t-61 18.5h-318z" />
    <glyph glyph-name="ucircumflex" unicode="&#x44b;" horiz-adv-x="1308" 
d="M1022 715h220v-715h-220v715zM61 0v715h220v-175h318q175 0 232 -44q70 -54 70 -226q0 -173 -69 -226q-57 -44 -233 -44h-538zM281 355v-170h318q40 0 59 16q23 19 23 68t-21 67.5t-61 18.5h-318z" />
    <glyph glyph-name="udieresis" unicode="&#xfc;" horiz-adv-x="979" 
d="M75 0v715h220v-175h318q176 0 233 -43q71 -54 71 -227q0 -174 -70 -227q-57 -43 -234 -43h-538zM295 355v-170h318q40 0 59 16q24 20 24 69q0 47 -24 68q-20 17 -59 17h-318z" />
    <glyph glyph-name="udieresis" unicode="&#x44c;" horiz-adv-x="979" 
d="M75 0v715h220v-175h318q176 0 233 -43q71 -54 71 -227q0 -174 -70 -227q-57 -43 -234 -43h-538zM295 355v-170h318q40 0 59 16q24 20 24 69q0 47 -24 68q-20 17 -59 17h-318z" />
    <glyph glyph-name="yacute" unicode="&#xfd;" horiz-adv-x="1024" 
d="M516 724q-259 0 -338 -31q-100 -39 -100 -175v-79h220q0 73 31 86.5t187 13.5t187 -14t31 -91h-330v-155h330q0 -77 -30.5 -91t-187.5 -14t-187.5 13t-30.5 87h-220v-80q0 -135 100 -174q79 -31 338 -31q308 0 372.5 56t64.5 312t-60 309q-66 58 -377 58z" />
    <glyph glyph-name="yacute" unicode="&#x44d;" horiz-adv-x="1024" 
d="M516 724q-259 0 -338 -31q-100 -39 -100 -175v-79h220q0 73 31 86.5t187 13.5t187 -14t31 -91h-330v-155h330q0 -77 -30.5 -91t-187.5 -14t-187.5 13t-30.5 87h-220v-80q0 -135 100 -174q79 -31 338 -31q308 0 372.5 56t64.5 312t-60 309q-66 58 -377 58z" />
    <glyph glyph-name="thorn" unicode="&#xfe;" 
d="M352 455h-118v260h-220v-715h220v270h118q0 -189 75.5 -234.5t396.5 -45.5q342 0 407.5 53t65.5 314t-63 312q-69 56 -410 56q-316 0 -394 -45t-78 -225zM825 540q176 0 214 -27t38 -156q0 -128 -37.5 -154.5t-214.5 -26.5q-179 0 -216 26t-37 155q0 127 39 155t214 28z
" />
    <glyph glyph-name="thorn" unicode="&#x44e;" 
d="M352 455h-118v260h-220v-715h220v270h118q0 -189 75.5 -234.5t396.5 -45.5q342 0 407.5 53t65.5 314t-63 312q-69 56 -410 56q-316 0 -394 -45t-78 -225zM825 540q176 0 214 -27t38 -156q0 -128 -37.5 -154.5t-214.5 -26.5q-179 0 -216 26t-37 155q0 127 39 155t214 28z
" />
    <glyph glyph-name="ydieresis" unicode="&#xff;" horiz-adv-x="986" 
d="M920 715v-715h-220v200h-348q-37 0 -54.5 -22t-17.5 -50v-128h-220v160q0 65 21 94q18 25 78 51q-54 21 -76.5 66t-22.5 136q0 123 65 171q50 37 155 37h640zM700 530h-353q-36 0 -51.5 -15.5t-15.5 -57.5q0 -40 16 -56t51 -16h353v145z" />
    <glyph glyph-name="ydieresis" unicode="&#x44f;" horiz-adv-x="986" 
d="M920 715v-715h-220v200h-348q-37 0 -54.5 -22t-17.5 -50v-128h-220v160q0 65 21 94q18 25 78 51q-54 21 -76.5 66t-22.5 136q0 123 65 171q50 37 155 37h640zM700 530h-353q-36 0 -51.5 -15.5t-15.5 -57.5q0 -40 16 -56t51 -16h353v145z" />
    <glyph glyph-name="endash" unicode="&#x2013;" horiz-adv-x="733" 
d="M67 393h595v-138h-595v138z" />
    <glyph glyph-name="emdash" unicode="&#x2014;" horiz-adv-x="1107" 
d="M68 394h972v-139h-972v139z" />
    <glyph glyph-name="quoteleft" unicode="&#x2018;" horiz-adv-x="289" 
d="M230 566v-194h-193v194q0 112 56 149q44 29 165 29v-93q-41 0 -56.5 -11t-15.5 -43v-31h44z" />
    <glyph glyph-name="quoteright" unicode="&#x2019;" horiz-adv-x="289" 
d="M65 554v194h193v-194q0 -112 -56 -149q-44 -29 -165 -29v93q41 0 56.5 11t15.5 43v31h-44z" />
    <glyph glyph-name="quotedblleft" unicode="&#x201c;" horiz-adv-x="551" 
d="M229 566l1 -194h-193v194q0 112 56 149q44 29 165 29v-93q-41 0 -56.5 -11t-15.5 -43v-31h43zM500 566l1 -194h-193v194q0 112 56 149q44 29 165 29v-93q-41 0 -56.5 -11t-15.5 -43v-31h43z" />
    <glyph glyph-name="quotedblright" unicode="&#x201d;" horiz-adv-x="551" 
d="M337 551l-1 194h193v-194q0 -112 -56 -149q-44 -29 -165 -29v93q41 0 56.5 11t15.5 43v31h-43zM66 551l-1 194h193v-194q0 -112 -56 -149q-44 -29 -165 -29v93q41 0 56.5 11t15.5 43v31h-43z" />
    <glyph glyph-name="bullet" unicode="&#x2022;" horiz-adv-x="478" 
d="M240 442q76 0 121 -50q41 -46 41 -110q0 -65 -41 -111q-45 -51 -121 -51q-80 0 -127 49q-43 45 -43 109q0 65 43 112q48 52 127 52z" />
    <glyph glyph-name="trademark" unicode="&#x2122;" horiz-adv-x="400" 
d="M50 702h124v-13h-55v-161h-13v161h-56v13zM169 529l39 175l55 -147l57 147l37 -175h-14l-26 131l-54 -140l-53 140l-28 -131h-13z" />
  </font>
</defs>
</svg>
