<svg width="762" height="140" viewBox="0 0 762 140" fill="none" xmlns="http://www.w3.org/2000/svg">
<g clip-path="url(#clip0_135_2646)">
<path d="M78.9853 57.3053C62.5199 69.9527 46.2455 78.1809 25.7744 77.496C19.4816 77.2795 13.1888 77.4606 6.67902 77.4606V97.5055C6.67902 122.827 29.1855 142.041 53.6492 137.511C78.3864 132.937 106.5 89.1358 126.923 69.0556C126.923 69.0556 143.923 92.4766 121.572 131.523C119.428 135.266 124.905 139.398 129.154 139.65C170.118 142.111 206.603 131.762 237.815 100.824V133.37H298.408V32.13C298.408 29.9991 297.587 27.9533 296.123 26.4309C294.659 24.9085 292.667 24.0308 290.575 23.9857C272.165 23.5438 267.166 23.4996 249.646 29.8542C229.656 37.1191 207.402 60.6859 196.982 79.3476C180.924 108.133 139.001 126.335 173.98 73.974C173.976 73.9784 161.811 -6.30251 78.9853 57.3053Z" fill="#BBC9B4"/>
<path d="M333.066 77.7523V73.1344C333.066 62.6303 335.731 59.7358 346.177 59.7358H347.045C356.957 59.7358 359.448 62.1796 359.448 69.6478V71.0972H351.936V70.0985C351.936 67.3852 351.068 65.8916 347.002 65.8916H346.468C341.889 65.8916 341 67.2173 341 73.1786V77.6595C341 83.9964 342.154 84.9951 346.377 84.9951H346.954C350.69 84.9951 352.114 83.9964 352.114 80.5761V79.3962H359.583V81.2522C359.583 88.9944 356.601 91.2569 346.997 91.2569H346.129C335.688 91.2393 333.066 88.4332 333.066 77.7523Z" fill="#BBC9B4"/>
<path d="M363.398 60.0981H385.179V66.1169H371.144V72.3036H384.259V78.0086H371.144V84.7078H385.639V90.8636H363.411L363.398 60.0981Z" fill="#BBC9B4"/>
<path d="M389.406 60.0981H400.833L411.145 83.961H411.366L411.01 60.0981H418.214V90.8768H407.056L396.563 66.8858H396.341L396.563 90.8768H389.406V60.0981Z" fill="#BBC9B4"/>
<path d="M429.467 66.2539H421.196V60.0981H445.469V66.2539H437.223V90.8768H429.446L429.467 66.2539Z" fill="#BBC9B4"/>
<path d="M448.45 60.0981H470.236V66.1169H456.205V72.3036H469.316V78.0086H456.205V84.7078H470.696V90.8636H448.467L448.45 60.0981Z" fill="#BBC9B4"/>
<path d="M474.463 60.0981H489.132C497.712 60.0981 499.547 62.6303 499.547 69.1484V69.8731C499.547 74.6722 498.393 77.0717 495.208 77.7523V77.9334C498.853 78.6095 499.608 80.059 499.608 85.8877V90.868H491.961V86.5241C491.961 81.9062 491.163 81.2212 486.185 81.2212H482.092V90.8636H474.493L474.463 60.0981ZM487.452 75.4853C491.007 75.4853 491.896 74.628 491.896 71.1414V70.1913C491.896 66.656 491.028 66.0285 487.404 66.0285H482.071V75.4853H487.452Z" fill="#BBC9B4"/>
<path d="M513.804 76.347V72.909C513.804 67.7166 514.672 66.3467 519.328 66.3467H519.762C524.41 66.3467 525.283 67.7166 525.283 72.909V76.347C525.283 81.7824 524.415 83.0286 519.762 83.0286H519.328C514.676 83.0286 513.804 81.7824 513.804 76.347ZM519.754 80.6246C521.924 80.6246 522.323 80.0236 522.323 76.5414V72.6704C522.323 69.303 521.924 68.6932 519.754 68.6932H519.35C517.154 68.6932 516.746 69.2942 516.746 72.6704V76.5414C516.746 80.0236 517.145 80.6246 519.35 80.6246H519.754Z" fill="#BBC9B4"/>
<path d="M527.618 66.5146H536.141V68.8965H530.499V73.9917H535.707V76.2984H530.499V82.8607H527.596L527.618 66.5146Z" fill="#BBC9B4"/>
<path d="M549.603 60.0981H561.295L567.917 82.759H568.052L574.683 60.0981H586.24V90.8768H578.949L579.218 66.7488H579.023L571.376 90.8768H564.307L556.751 66.7488H556.573L556.838 90.8768H549.595L549.603 60.0981Z" fill="#BBC9B4"/>
<path d="M598.952 60.0981H609.754L619.735 90.8768H611.49L609.801 84.9023H598.73L597.042 90.8768H589.083L598.952 60.0981ZM608.109 79.1001L604.377 65.7457H604.155L600.332 79.1001H608.109Z" fill="#BBC9B4"/>
<path d="M621.371 82.6397V81.0532H628.619V82.1845C628.619 84.6769 629.552 85.3088 634.087 85.3088H634.934C638.8 85.3088 639.464 84.5841 639.464 82.3215V81.778C639.464 79.5684 638.844 78.5653 632.842 78.1587C623.064 77.4782 621.463 75.1715 621.463 68.8345V68.1098C621.463 62.1353 623.685 59.7136 632.529 59.7136H633.909C644.533 59.7136 646.091 61.795 646.091 67.9066V69.3074H638.887V68.2689C638.887 66.3643 638.267 65.5512 634.174 65.5512H633.198C629.552 65.5512 628.797 66.0947 628.797 68.1761V68.7638C628.797 70.8496 629.331 71.5257 635.376 72.0693C645.158 72.9752 646.89 74.8754 646.89 81.1681V82.0298C646.89 88.9987 644.221 91.2171 635.997 91.2171H634.799C622.929 91.2391 621.371 89.7013 621.371 82.6397Z" fill="#BBC9B4"/>
<path d="M650.149 82.6397V81.0532H657.397V82.1845C657.397 84.6769 658.33 85.3088 662.865 85.3088H663.707C667.578 85.3088 668.242 84.5841 668.242 82.3215V81.778C668.242 79.5684 667.621 78.5653 661.619 78.1587C651.841 77.4782 650.24 75.1715 650.24 68.8345V68.1098C650.24 62.1353 652.462 59.7136 661.307 59.7136H662.687C673.311 59.7136 674.869 61.795 674.869 67.9066V69.3074H667.665V68.2689C667.665 66.3643 667.044 65.5512 662.951 65.5512H661.975C658.329 65.5512 657.574 66.0947 657.574 68.1761V68.7638C657.574 70.8496 658.108 71.5257 664.154 72.0693C673.931 72.9752 675.667 74.8754 675.667 81.1681V82.0298C675.667 88.9987 672.998 91.2171 664.774 91.2171H663.576C651.707 91.2391 650.149 89.7013 650.149 82.6397Z" fill="#BBC9B4"/>
<path d="M687.085 60.0981H697.887L707.843 90.8768H699.619L697.931 84.9023H686.864L685.171 90.8768H677.217L687.085 60.0981ZM696.243 79.1001L692.51 65.7457H692.285L688.461 79.1001H696.243Z" fill="#BBC9B4"/>
<path d="M709.306 77.6595V73.0372C709.306 62.5375 711.91 59.7314 722.325 59.7314H723.171C732.506 59.7314 735.662 62.0382 735.662 69.0556V70.0941H728.149V69.4622C728.149 66.8373 727.216 65.8872 723.128 65.8872H722.594C718.059 65.8872 717.169 67.0626 717.169 73.1742V77.6551C717.169 83.5413 718.102 84.9907 722.681 84.9907H723.258C727.572 84.9907 728.548 83.855 728.548 80.6866V79.7365H722.238V74.0359H735.887V79.8735C735.887 88.9281 733.305 91.2349 723.215 91.2349H722.416C711.927 91.2393 709.306 88.5039 709.306 77.6595Z" fill="#BBC9B4"/>
<path d="M739.771 60.0981H761.553V66.1169H747.509V72.3036H760.62V78.0086H747.509V84.7078H762V90.8636H739.771V60.0981Z" fill="#BBC9B4"/>
<path d="M341.733 108.734H333.466V102.579H357.738V108.734H349.493V133.357H341.711L341.733 108.734Z" fill="#BBC9B4"/>
<path d="M360.729 102.579H382.51V108.597H368.467V114.784H381.56V120.489H368.449V127.188H382.94V133.357H360.729V102.579Z" fill="#BBC9B4"/>
<path d="M386.151 120.233V115.615C386.151 105.111 388.82 102.216 399.266 102.216H400.113C410.025 102.216 412.516 104.66 412.516 112.128V113.577H404.995V112.583C404.995 109.865 404.153 108.372 400.065 108.372H399.531C394.953 108.372 394.063 109.698 394.063 115.659V120.14C394.063 126.477 395.217 127.475 399.44 127.475H400.017C403.754 127.475 405.173 126.477 405.173 123.056V121.876H412.642V123.732C412.642 131.475 409.665 133.737 400.056 133.737H399.188C388.777 133.719 386.151 130.927 386.151 120.233Z" fill="#BBC9B4"/>
<path d="M416.487 102.579H424.264V114.21H434.94V102.579H442.717V133.357H434.94V121.09H424.264V133.357H416.487V102.579Z" fill="#BBC9B4"/>
<path d="M447.608 102.579H459.035L469.346 126.441H469.568L469.212 102.579H476.416V133.357H465.258L454.764 109.366H454.543L454.764 133.357H447.608V102.579Z" fill="#BBC9B4"/>
<path d="M480.734 120.277V115.659C480.734 105.429 483.338 102.216 494.188 102.216H495.212C506.062 102.216 508.665 105.429 508.665 115.659V120.277C508.665 130.507 506.062 133.719 495.212 133.719H494.188C483.355 133.719 480.734 130.507 480.734 120.277ZM495.09 127.475C499.669 127.475 500.78 126.114 500.78 120.14V115.721C500.78 109.746 499.669 108.389 495.09 108.389H494.335C489.757 108.389 488.646 109.746 488.646 115.721V120.14C488.646 126.114 489.757 127.475 494.335 127.475H495.09Z" fill="#BBC9B4"/>
<path d="M513.01 102.579H520.791V127.157H532.882V133.344H513.01V102.579Z" fill="#BBC9B4"/>
<path d="M534.665 120.277V115.659C534.665 105.429 537.269 102.216 548.119 102.216H549.139C559.988 102.216 562.592 105.429 562.592 115.659V120.277C562.592 130.507 559.988 133.719 549.139 133.719H548.119C537.287 133.719 534.665 130.507 534.665 120.277ZM549.026 127.475C553.605 127.475 554.716 126.114 554.716 120.14V115.721C554.716 109.746 553.605 108.389 549.026 108.389H548.266C543.688 108.389 542.577 109.746 542.577 115.721V120.14C542.577 126.114 543.688 127.475 548.266 127.475H549.026Z" fill="#BBC9B4"/>
<path d="M566.368 120.14V115.522C566.368 105.022 568.972 102.216 579.388 102.216H580.23C589.565 102.216 592.724 104.523 592.724 111.54V112.583H585.212V111.947C585.212 109.322 584.279 108.372 580.186 108.372H579.652C575.117 108.372 574.232 109.547 574.232 115.659V120.14C574.232 126.026 575.165 127.475 579.744 127.475H580.325C584.639 127.475 585.615 126.34 585.615 123.171V122.221H579.301V116.521H592.95V122.358C592.95 131.413 590.372 133.719 580.282 133.719H579.479C568.989 133.719 566.368 131.006 566.368 120.14Z" fill="#BBC9B4"/>
<path d="M597.25 102.579H605.062V133.357H597.25V102.579Z" fill="#BBC9B4"/>
<path d="M609.936 102.579H631.722V108.597H617.674V114.784H630.789V120.489H617.674V127.188H632.165V133.357H609.936V102.579Z" fill="#BBC9B4"/>
<path d="M635.415 125.12V123.534H642.658V124.665C642.658 127.157 643.591 127.789 648.127 127.789H648.973C652.84 127.789 653.508 127.064 653.508 124.802V124.258C653.508 122.049 652.883 121.046 646.885 120.639C637.103 119.959 635.502 117.652 635.502 111.315V110.599C635.502 104.625 637.724 102.203 646.573 102.203H647.949C658.577 102.203 660.131 104.284 660.131 110.396V111.797H652.931V110.758C652.931 108.858 652.306 108.04 648.218 108.04H647.237C643.591 108.04 642.836 108.584 642.836 110.665V111.258C642.836 113.339 643.37 114.015 649.415 114.559C659.197 115.464 660.929 117.365 660.929 123.657V124.519C660.929 131.488 658.264 133.706 650.04 133.706H648.838C636.969 133.72 635.415 132.182 635.415 125.12Z" fill="#BBC9B4"/>
<path d="M335.202 30.0088H339.107C341.408 30.0088 342.08 30.486 342.08 32.7972C342.08 34.4544 341.737 34.9802 340.609 35.2056V35.2542C341.876 35.4928 342.315 36.001 342.315 37.9454C342.315 40.2742 341.581 40.8487 339.39 40.8487H335.193L335.202 30.0088ZM339.051 34.5693C339.975 34.5693 340.258 34.3616 340.258 33.0049C340.258 31.6483 339.993 31.4759 338.851 31.4759H337.033V34.5693H339.051ZM338.93 39.3507C340.197 39.3507 340.444 39.0634 340.444 37.6758C340.444 36.2883 340.119 35.9878 339.099 35.9878H337.033V39.3507H338.93Z" fill="#BBC9B4"/>
<path d="M351.732 37.3091L348.868 30.0088H350.808L352.722 35.4752H352.752L354.614 30.0088H356.554L353.672 37.3091V40.8443H351.732V37.3091Z" fill="#BBC9B4"/>
<path d="M373.162 36.527V34.2335C373.162 30.7734 373.774 29.8984 376.795 29.8984H377.016C379.846 29.8984 380.41 30.6762 380.41 32.9918V33.2967H378.548V32.9476C378.548 31.8472 378.296 31.4628 376.999 31.4628H376.812C375.384 31.4628 375.119 31.8472 375.119 34.0921V36.6596C375.119 39.0194 375.371 39.3685 376.825 39.3685H377.016C378.422 39.3685 378.657 39.068 378.657 37.5522V36.801H376.734V35.2543H380.475V37.181C380.475 40.3362 379.88 40.9593 377.003 40.9593H376.786C373.748 40.9593 373.162 40.1462 373.162 36.527Z" fill="#BBC9B4"/>
<path d="M390.179 30.0088H393.06L395.799 40.8487H393.781L393.247 38.5199H389.914L389.363 40.8487H387.44L390.179 30.0088ZM392.965 37.0395L391.633 31.445H391.542L390.166 37.0395H392.965Z" fill="#BBC9B4"/>
<path d="M403.046 30.0088H404.969V39.2888H408.441V40.8531H403.055L403.046 30.0088Z" fill="#BBC9B4"/>
<path d="M415.71 30.0088H417.637V40.8487H415.71V30.0088Z" fill="#BBC9B4"/>
<path d="M425.635 30.0088H428.469L431.911 39.0944H431.972L431.863 30.0088H433.599V40.8487H430.813L427.341 31.7145H427.263L427.324 40.8487H425.588L425.635 30.0088Z" fill="#BBC9B4"/>
<path d="M443.589 30.0088H446.467L449.209 40.8487H447.187L446.658 38.5199H443.325L442.774 40.8487H440.851L443.589 30.0088ZM446.376 37.0395L445.043 31.445H444.965L443.589 37.0395H446.376Z" fill="#BBC9B4"/>
<path d="M466.083 30.0088H469.043L471.312 38.8469H471.36L473.63 30.0088H476.538V40.8487H474.771L474.849 31.635H474.784L472.263 40.8487H470.292L467.788 31.635H467.723L467.801 40.8487H466.065L466.083 30.0088Z" fill="#BBC9B4"/>
<path d="M486.528 30.0088H489.405L492.148 40.8487H490.126L489.596 38.5199H486.259L485.712 40.8487H483.789L486.528 30.0088ZM489.314 37.0395L487.982 31.445H487.886L486.51 37.0395H489.314Z" fill="#BBC9B4"/>
<path d="M499.396 30.0088H501.27V34.5913H501.978L504.582 30.0176H506.708L503.627 35.2454L506.912 40.8576H504.677L501.982 35.9966H501.292V40.8576H499.417L499.396 30.0088Z" fill="#BBC9B4"/>
<path d="M516.095 30.0088H518.972L521.715 40.8487H519.693L519.164 38.5199H515.826L515.279 40.8487H513.357L516.095 30.0088ZM518.881 37.0395L517.549 31.445H517.471L516.095 37.0395H518.881Z" fill="#BBC9B4"/>
<path d="M528.95 30.0088H532.587C535.295 30.0088 535.842 30.5656 535.842 33.0226V33.4026C535.842 35.126 535.451 35.7933 534.466 36.001V36.0496C535.607 36.275 535.842 36.8318 535.842 38.9662V40.8487H533.949V39.1253C533.949 37.1809 533.728 36.9158 532.287 36.9158H530.851V40.8399H528.972L528.95 30.0088ZM532.587 35.4752C533.637 35.4752 533.919 35.126 533.919 33.8843V33.1817C533.919 31.7808 533.667 31.5422 532.305 31.5422H530.851V35.4752H532.587Z" fill="#BBC9B4"/>
<path d="M543.523 36.527V34.2468C543.523 30.8043 544.1 29.8984 547.186 29.8984H547.468C550.549 29.8984 551.131 30.8043 551.131 34.2468V36.527C551.131 40.1285 550.549 40.9461 547.468 40.9461H547.186C544.1 40.9593 543.523 40.1285 543.523 36.527ZM547.468 39.364C548.905 39.364 549.174 38.9663 549.174 36.6552V34.0877C549.174 31.8561 548.905 31.4584 547.468 31.4584H547.199C545.745 31.4584 545.463 31.8561 545.463 34.0877V36.6552C545.463 38.9663 545.728 39.364 547.199 39.364H547.468Z" fill="#BBC9B4"/>
<path d="M558.066 30.0088H560.006L562.024 39.3153H562.072L564.077 30.0088H565.938L563.335 40.8487H560.687L558.066 30.0088Z" fill="#BBC9B4"/>
<path d="M574.627 30.0088H577.509L580.247 40.8487H578.225L577.695 38.5199H574.362L573.811 40.8487H571.888L574.627 30.0088ZM577.413 37.0395L576.081 31.445H575.985L574.61 37.0395H577.413Z" fill="#BBC9B4"/>
<path d="M31.3338 -0.000976562L34.3717 8.33777C36.0779 13.0312 38.761 17.2933 42.2368 20.8318C45.7126 24.3703 49.8988 27.1014 54.5085 28.8378L62.6936 31.9311L54.5085 35.0244C49.8984 36.7601 45.7118 39.4909 42.2359 43.0294C38.7599 46.568 36.0772 50.8305 34.3717 55.5244L31.3338 63.8588L28.2959 55.5244C26.5928 50.8351 23.9143 46.5762 20.4439 43.0393C16.9734 39.5025 12.7931 36.7714 8.18931 35.0333L6.10352e-05 31.9399L8.18931 28.8466C12.7985 27.1102 16.9843 24.379 20.4594 20.8405C23.9344 17.302 26.6167 13.0399 28.3219 8.34661L31.3338 -0.000976562Z" fill="#BBC9B4"/>
</g>
<defs>
<clipPath id="clip0_135_2646">
<rect width="762" height="140" fill="white" transform="translate(0 -0.000976562)"/>
</clipPath>
</defs>
</svg>
