<svg width="51" height="52" viewBox="0 0 51 52" fill="none" xmlns="http://www.w3.org/2000/svg">
<path fill-rule="evenodd" clip-rule="evenodd" d="M25.5 1.5C11.969 1.5 1.00002 12.469 1.00002 26C1.00002 39.531 11.969 50.5 25.5 50.5C39.031 50.5 50 39.531 50 26C50 12.469 39.031 1.5 25.5 1.5ZM2.47955e-05 26C2.47955e-05 11.9167 11.4168 0.5 25.5 0.5C39.5833 0.5 51 11.9167 51 26C51 40.0833 39.5833 51.5 25.5 51.5C11.4168 51.5 2.47955e-05 40.0833 2.47955e-05 26Z" fill="#7E0C27"/>
<path d="M17.5363 44.6392L39.8896 22.2859" stroke="#7E0C27" stroke-miterlimit="10"/>
<path d="M33.2012 28.9741L14.7838 10.5566" stroke="#7E0C27" stroke-miterlimit="10"/>
<path d="M26.4617 22.2347L37.4235 11.2729" stroke="#7E0C27" stroke-miterlimit="10"/>
<path d="M33.0853 44.9054L25.176 36.9995" stroke="#7E0C27" stroke-miterlimit="10"/>
</svg>
