<svg width="52" height="52" viewBox="0 0 52 52" fill="none" xmlns="http://www.w3.org/2000/svg">
<path d="M50.9999 26.0153C51.0017 29.8084 50.1389 33.5519 48.4772 36.9616C46.8155 40.3712 44.3987 43.3574 41.4101 45.6931C40.5096 46.3992 39.5613 47.0423 38.5721 47.6178C34.7561 49.8416 30.4167 51.009 26 50.9999C20.8599 50.9989 15.8448 49.4146 11.6369 46.4627C7.42897 43.5107 4.23245 39.3342 2.48202 34.5014C1.49806 31.7751 0.996548 28.8983 1.00002 26C1.00002 19.3696 3.63394 13.0108 8.32234 8.32237C13.0107 3.63398 19.3696 1.00005 26 1.00005C32.2628 0.987014 38.3007 3.3341 42.9105 7.57364C45.4671 9.91607 47.5071 12.766 48.9 15.9414C50.2929 19.1168 51.0081 22.5479 50.9999 26.0153Z" stroke="#7E0C27" stroke-miterlimit="10"/>
<path d="M41.4102 45.6931C40.5096 46.3992 39.5613 47.0423 38.5722 47.6178C34.7562 49.8417 30.4167 51.009 26 50.9999C20.8599 50.9989 15.8448 49.4147 11.6369 46.4627C7.42901 43.5107 4.23248 39.3343 2.48206 34.5014C6.87655 31.0504 12.3046 29.179 17.8921 29.1884C22.41 29.1814 26.8445 30.4048 30.7196 32.7273C35.6683 35.6911 39.4439 40.2703 41.4102 45.6931Z" stroke="#7E0C27" stroke-miterlimit="10"/>
<path d="M30.7196 32.7302C30.554 31.5578 30.4708 30.3753 30.4706 29.1913C30.4689 24.8159 31.6158 20.5167 33.7967 16.7236C35.9776 12.9305 39.1161 9.77635 42.8982 7.57654C45.4552 9.91613 47.4963 12.7631 48.8912 15.9358C50.2862 19.1084 51.0044 22.5371 51 26.0029C51.0017 29.7959 50.1389 33.5394 48.4773 36.9491C46.8156 40.3588 44.3987 43.3449 41.4102 45.6806C40.5096 46.3867 39.5613 47.0298 38.5722 47.6053" stroke="#7E0C27" stroke-miterlimit="10"/>
<path d="M41.407 45.6901V22.6088" stroke="#7E0C27" stroke-miterlimit="10"/>
<path d="M41.4132 45.7761L19.2265 39.4147" stroke="#7E0C27" stroke-miterlimit="10"/>
</svg>
