<svg width="54" height="52" viewBox="0 0 54 52" fill="none" xmlns="http://www.w3.org/2000/svg">
<path d="M46.3201 11.6006V15.7297C46.3182 17.6006 47.0054 19.4067 48.2504 20.8032L50.9988 23.9C51.7521 24.7458 52.3074 25.7489 52.6244 26.8362C52.9415 27.9236 53.0122 29.0679 52.8315 30.186C52.6509 31.3041 52.2233 32.3679 51.5799 33.3001C50.9366 34.2323 50.0936 35.0094 49.1123 35.5749L45.533 37.6394C43.9118 38.5738 42.691 40.072 42.1033 41.8485L40.8129 45.7711C40.4575 46.8465 39.8667 47.8292 39.0837 48.6476C38.3007 49.466 37.3451 50.0995 36.2865 50.5022C35.2278 50.9048 34.0926 51.0665 32.9637 50.9753C31.8347 50.8841 30.7403 50.5423 29.76 49.975L26.1832 47.9104C24.5635 46.9734 22.6557 46.6647 20.8232 47.0433L16.7767 47.8821C15.6665 48.1115 14.5193 48.0906 13.4183 47.8207C12.3173 47.5507 11.2904 47.0387 10.4123 46.3218C9.53418 45.6048 8.82699 44.7011 8.34227 43.6764C7.85754 42.6517 7.60747 41.5317 7.61022 40.3982V36.2691C7.61086 34.3984 6.9238 32.5927 5.67983 31.1955L2.92887 28.0988C2.17605 27.2527 1.62112 26.2496 1.30436 25.1624C0.987611 24.0751 0.917004 22.931 1.09765 21.813C1.27829 20.695 1.70566 19.6313 2.34872 18.6991C2.99179 17.767 3.83439 16.9897 4.81534 16.4239L8.39468 14.3593C10.0159 13.425 11.2367 11.9268 11.8244 10.1503L13.1147 6.22768C13.4706 5.15256 14.0616 4.1702 14.8446 3.35207C15.6277 2.53394 16.5832 1.90058 17.6418 1.49798C18.7003 1.09538 19.8352 0.933672 20.9641 1.02463C22.0929 1.11558 23.1873 1.4569 24.1677 2.02378L27.7445 4.08831C29.3642 5.02539 31.2719 5.33402 33.1045 4.9554L37.1536 4.11669C38.2636 3.8877 39.4107 3.90905 40.5115 4.17916C41.6123 4.44927 42.639 4.96134 43.517 5.67816C44.395 6.39498 45.1022 7.2985 45.587 8.32299C46.0719 9.34747 46.3224 10.4672 46.3201 11.6006Z" stroke="#7E0C27" stroke-miterlimit="10"/>
<path d="M46.1446 16.3127L45.5123 19.9256C45.2259 21.5679 45.5538 23.2581 46.4336 24.674L48.3743 27.7992C48.9067 28.6561 49.2414 29.6209 49.3542 30.6234C49.467 31.6259 49.3549 32.641 49.0262 33.5947C48.6975 34.5485 48.1604 35.4171 47.4539 36.1372C46.7474 36.8574 45.8893 37.411 44.942 37.758L41.4839 39.0225C39.92 39.5968 38.6214 40.7255 37.8349 42.1941L36.0981 45.4406C35.6217 46.3296 34.9533 47.1014 34.1414 47.6999C33.3295 48.2983 32.3944 48.7085 31.4042 48.9005C30.414 49.0925 29.3935 49.0615 28.4168 48.8099C27.4401 48.5583 26.5316 48.0923 25.7574 47.4458L22.9187 45.0845C21.6403 44.0162 20.0134 43.4558 18.3483 43.5103L14.6683 43.6264C13.6602 43.6591 12.6574 43.4666 11.733 43.0631C10.8086 42.6595 9.98571 42.055 9.32428 41.2934C8.66284 40.5319 8.17943 39.6325 7.90926 38.6607C7.6391 37.6888 7.58896 36.669 7.76246 35.6754L8.39471 32.0625C8.67849 30.4203 8.35078 28.731 7.47346 27.3141L5.53022 24.1889C4.99788 23.3318 4.66323 22.3668 4.55063 21.3642C4.43803 20.3616 4.55028 19.3464 4.87926 18.3926C5.20823 17.4388 5.74565 16.5703 6.45241 15.8503C7.15918 15.1303 8.01757 14.5768 8.96509 14.2301L12.4206 12.9656C13.9848 12.3908 15.284 11.2624 16.0722 9.79396L17.8089 6.54751C18.2847 5.65818 18.9528 4.88606 19.7644 4.28732C20.5761 3.68858 21.511 3.27826 22.5011 3.08621C23.4913 2.89416 24.5118 2.92521 25.4884 3.17709C26.4651 3.42897 27.3733 3.89536 28.1471 4.54233L30.9729 6.90364C32.2523 7.97187 33.88 8.53217 35.5459 8.47783L39.2233 8.36169C40.2326 8.32713 41.2368 8.51816 42.163 8.92085C43.0891 9.32354 43.9138 9.92773 44.5768 10.6894C45.2399 11.4512 45.7247 12.3512 45.9959 13.324C46.2671 14.2968 46.3179 15.3178 46.1446 16.3127Z" stroke="#7E0C27" stroke-miterlimit="10"/>
</svg>
