<svg width="20" height="20" viewBox="0 0 20 20" fill="none" xmlns="http://www.w3.org/2000/svg">
<g clip-path="url(#clip0_2019_36)">
<path d="M10 12.0508C11.1326 12.0508 12.0508 11.1326 12.0508 10C12.0508 8.86738 11.1326 7.94922 10 7.94922C8.86738 7.94922 7.94922 8.86738 7.94922 10C7.94922 11.1326 8.86738 12.0508 10 12.0508Z" fill="#535353"/>
<path d="M10 0.234375C4.6066 0.234375 0.234375 4.6066 0.234375 10C0.234375 15.3934 4.6066 19.7656 10 19.7656C15.3934 19.7656 19.7656 15.3934 19.7656 10C19.7656 4.6066 15.3934 0.234375 10 0.234375ZM16.0335 12.482C15.9866 13.4105 15.7257 14.326 15.0491 14.9954C14.366 15.6712 13.4461 15.923 12.5087 15.9694H7.49133C6.55383 15.923 5.63406 15.6714 4.9509 14.9954C4.27426 14.326 4.0134 13.4105 3.96652 12.482V7.51797C4.0134 6.58953 4.2743 5.67398 4.9509 5.00453C5.63406 4.32875 6.55395 4.07695 7.49133 4.03059H12.5087C13.4462 4.07695 14.3659 4.32863 15.0491 5.00453C15.7257 5.67398 15.9866 6.58953 16.0335 7.51797L16.0335 12.482Z" fill="#535353"/>
<path d="M12.4453 5.16161C11.2232 5.1281 8.77712 5.1281 7.55501 5.16161C6.91903 5.17907 6.19805 5.33739 5.74493 5.82138C5.27407 6.32446 5.09614 6.93228 5.07809 7.61224C5.04637 8.80567 5.07809 12.3877 5.07809 12.3877C5.09876 13.0676 5.27407 13.6755 5.74493 14.1786C6.19805 14.6627 6.91903 14.8209 7.55501 14.8383C8.77712 14.8718 11.2232 14.8718 12.4453 14.8383C13.0813 14.8209 13.8023 14.6625 14.2554 14.1786C14.7263 13.6755 14.9042 13.0677 14.9222 12.3877V7.61224C14.9042 6.93228 14.7263 6.32446 14.2554 5.82138C13.8021 5.33724 13.0811 5.17907 12.4453 5.16161ZM10 13.1787C9.37132 13.1787 8.75675 12.9923 8.23401 12.643C7.71127 12.2937 7.30385 11.7972 7.06326 11.2164C6.82267 10.6356 6.75972 9.99644 6.88237 9.37984C7.00503 8.76323 7.30777 8.19683 7.75232 7.75228C8.19687 7.30773 8.76326 7.00499 9.37987 6.88234C9.99648 6.75969 10.6356 6.82264 11.2164 7.06322C11.7973 7.30381 12.2937 7.71124 12.643 8.23397C12.9923 8.75671 13.1787 9.37128 13.1787 9.99997C13.1787 10.843 12.8438 11.6515 12.2477 12.2477C11.6516 12.8438 10.8431 13.1787 10 13.1787ZM13.1922 7.47739C13.0665 7.47736 12.9436 7.44005 12.8391 7.37018C12.7345 7.3003 12.6531 7.201 12.605 7.08483C12.5569 6.96866 12.5443 6.84084 12.5689 6.71753C12.5934 6.59422 12.654 6.48095 12.7429 6.39206C12.8318 6.30316 12.9451 6.24263 13.0684 6.21811C13.1917 6.19359 13.3196 6.20619 13.4357 6.25432C13.5519 6.30244 13.6512 6.38392 13.721 6.48847C13.7908 6.59301 13.8281 6.71592 13.8281 6.84165C13.8281 6.92515 13.8117 7.00783 13.7797 7.08497C13.7478 7.16212 13.7009 7.23221 13.6419 7.29124C13.5828 7.35028 13.5127 7.3971 13.4356 7.42904C13.3584 7.46098 13.2757 7.47741 13.1922 7.47739Z" fill="#535353"/>
</g>
<defs>
<clipPath id="clip0_2019_36">
<rect width="20" height="20" fill="white"/>
</clipPath>
</defs>
</svg>
