<svg width="650" height="154" viewBox="0 0 650 154" fill="none" xmlns="http://www.w3.org/2000/svg">
<path d="M0 70.8615V63.9857C0 48.3088 4.00913 44 19.8026 44H21.0782C36.0516 44 39.7874 47.6365 39.7874 58.7906V60.9298H28.4586V59.4629C28.4586 55.3986 27.183 53.1678 21.0175 53.1678H20.1974C13.2726 53.1678 11.9362 55.1235 11.9362 64.0468V70.7393C11.9362 80.1821 13.6978 81.6795 20.0759 81.6795H20.9263C26.5756 81.6795 28.732 80.1821 28.732 75.0481V73.3062H40V76.0871C40 87.6385 35.5049 91 21.0175 91H19.7418C3.94837 91 0 86.7828 0 70.8615Z" fill="#7E0C27"/>
<path d="M46 44H79.3231V52.998H57.7846V62.1796H77.8462V70.7186H57.8462V80.8184H80V90H46V44Z" fill="#7E0C27"/>
<path d="M85 44H102.44L118.223 79.7267H118.56L118.008 44H129V90H112.082L96.0537 54.0893H95.716L96.0537 90H85.1228L85 44Z" fill="#7E0C27"/>
<path d="M146.229 53.2H134V44H170V53.2H157.861V90H146.229V53.2Z" fill="#7E0C27"/>
<path d="M175 44H208.353V52.998H186.795V62.1796H206.875V70.7186H186.795V80.8184H209V90H175.123L175 44Z" fill="#7E0C27"/>
<path d="M214 44H236.179C249.171 44 251.939 47.7951 251.939 57.5276V58.7824C251.939 65.9441 250.175 69.525 245.337 70.5349V70.8104C250.844 71.8204 252 73.8709 252 82.7159V90H240.439V83.5117C240.439 76.6254 239.222 75.6154 231.677 75.6154H225.592V90H214.091L214 44ZM233.624 67.0153C239.009 67.0153 240.348 65.7299 240.348 60.527V59.0885C240.348 53.8244 239.009 52.9674 233.563 52.9674H225.5V67.1071L233.624 67.0153Z" fill="#7E0C27"/>
<path d="M274 68.3882V63.4349C274 55.9754 275.301 54 282.13 54H282.87C289.699 54 291 55.9754 291 63.4349V68.3882C291 76.2015 289.699 78 282.87 78H282.249C275.39 78 274 76.2015 274 68.3882ZM282.87 74.5504C286.063 74.5504 286.654 73.6953 286.654 68.6536V63.0811C286.654 58.2457 286.063 57.3907 282.87 57.3907H282.278C279.056 57.3907 278.464 58.2457 278.464 63.0811V68.6536C278.464 73.6953 279.056 74.5504 282.278 74.5504H282.87Z" fill="#7E0C27"/>
<path d="M295 54H308V57.4713H299.415V65.0424H307.387V68.4239H299.415V78H295V54Z" fill="#7E0C27"/>
<path d="M328.123 44H345.99L356.138 77.9787H356.323L366.471 44H384V90H372.868L373.267 53.8747H372.991L361.305 90H350.511L338.948 53.8747H338.671L339.071 90H328L328.123 44Z" fill="#7E0C27"/>
<path d="M402.912 44H419.088L434 90H421.679L419.149 81.076H402.58L400.05 90H388L402.912 44ZM416.618 72.4893L411.015 52.4947H410.834L405.111 72.4893H416.618Z" fill="#7E0C27"/>
<path d="M437 78.0429V75.6899H448.095V77.4929C448.095 81.2211 449.508 82.1684 456.454 82.1684H457.745C463.645 82.1684 464.66 81.0683 464.66 77.7068V76.8817C464.66 73.5813 463.707 72.0839 454.548 71.4727C439.582 70.4642 437.154 67.0111 437.154 57.5683V56.4987C437.154 47.5754 440.534 44 454.057 44H456.177C472.404 44 474.771 47.0559 474.771 56.2237V58.3017H463.768V56.7432C463.768 53.9317 462.816 52.7094 456.577 52.7094H455.071C449.508 52.7094 448.371 53.5039 448.371 56.6209V57.5071C448.371 60.5631 449.17 61.6326 458.421 62.4272C473.357 63.7718 476 66.6138 476 75.9955V77.2789C476 87.6996 471.943 91 459.374 91H457.53C439.397 90.8778 437 88.5858 437 78.0429Z" fill="#7E0C27"/>
<path d="M481 78.0429V75.6899H491.81V77.4929C491.81 81.2211 493.188 82.1684 499.925 82.1684H501.183C506.962 82.1684 507.95 81.0683 507.95 77.7068V76.8817C507.95 73.5813 507.022 72.0839 498.098 71.4727C483.515 70.4642 481.15 67.0111 481.15 57.5683V56.4987C481.15 47.5754 484.444 44 497.619 44H499.686C515.496 44 517.802 47.0559 517.802 56.2237V58.3017H507.082V56.7432C507.082 53.9317 506.154 52.7094 500.075 52.7094H498.608C493.188 52.7094 492.05 53.5039 492.05 56.6209V57.5071C492.05 60.5631 492.858 61.6326 501.872 62.4272C516.425 63.7718 519 66.6138 519 75.9955V77.2789C519 87.6996 515.017 91 502.77 91H501.003C483.336 90.8778 481 88.5858 481 78.0429Z" fill="#7E0C27"/>
<path d="M536.236 44H552.764L568 90H555.411L552.826 81.076H535.897L533.312 90H521L536.236 44ZM550.24 72.4893L544.515 52.4947H544.177L538.329 72.4893H550.24Z" fill="#7E0C27"/>
<path d="M570 70.7045V63.8377C570 48.1812 573.936 44 589.591 44H590.863C604.913 44 609.667 47.4182 609.667 57.8864V59.4429H598.372V58.4968C598.372 54.5903 596.949 53.1558 590.802 53.1558H589.985C583.172 53.1558 581.84 54.926 581.84 64.0208V70.7045C581.84 79.4636 583.232 81.6305 590.136 81.6305H591.014C597.494 81.6305 598.978 79.952 598.978 75.2214V73.8175H589.47V65.3636H610V74.0617C610 87.5513 606.124 91 590.924 91H589.743C573.936 90.939 570 86.8799 570 70.7045Z" fill="#7E0C27"/>
<path d="M616 44H649.383V52.998H627.806V62.1796H647.904V70.7186H627.806V80.8184H650V90H616V44Z" fill="#7E0C27"/>
<path d="M13.2585 116.952H1V108H37V116.952H24.8012V153H13.2585V116.952Z" fill="#7E0C27"/>
<path d="M42 108H75.2329V116.82H53.7527V125.82H73.7599V134.19H53.7527V144H76V153H42V108Z" fill="#7E0C27"/>
<path d="M80 133.805V126.921C80 111.295 84.1373 107 100.282 107H101.589C116.925 107 120.782 110.625 120.782 121.743V123.905H109.148V122.413C109.148 118.392 107.873 116.321 101.527 116.321H100.718C93.6252 116.321 92.2565 118.27 92.2565 127.134V133.805C92.2565 143.248 94.0296 144.71 100.562 144.71H101.464C107.25 144.71 109.428 143.248 109.428 138.13V136.364H121V139.135C121 150.649 116.396 154 101.527 154H100.22C84.0751 153.848 80 149.675 80 133.805Z" fill="#7E0C27"/>
<path d="M126 108H137.862V124.95H154.138V108H166V153H154.138V135.095H137.862V153H126V108Z" fill="#7E0C27"/>
<path d="M174 108H191.104L206.551 142.765H206.762L206.22 108H217V153H200.288L184.599 118.027H184.268L184.72 153H174V108Z" fill="#7E0C27"/>
<path d="M224 133.953V127.047C224 111.767 227.928 107 244.245 107H245.755C262.072 107 266 111.798 266 127.047V133.953C266 149.233 262.072 154 245.755 154H244.245C227.928 154 224 149.202 224 133.953ZM245.574 144.679C252.433 144.679 254.125 142.663 254.125 133.739V127.138C254.125 118.215 252.433 116.198 245.574 116.198H244.426C237.567 116.198 235.875 118.215 235.875 127.138V133.739C235.875 142.663 237.567 144.679 244.426 144.679H245.574Z" fill="#7E0C27"/>
<path d="M273.03 108H284.781V144H303V153H273L273.03 108Z" fill="#7E0C27"/>
<path d="M306 133.953V127.047C306 111.767 309.955 107 326.23 107H327.77C344.045 107 348 111.798 348 127.047V133.953C348 149.233 344.045 154 327.77 154H326.23C309.955 154 306 149.202 306 133.953ZM327.559 144.679C334.443 144.679 336.104 142.663 336.104 133.739V127.138C336.104 118.215 334.443 116.198 327.559 116.198H326.441C319.557 116.198 317.896 118.215 317.896 127.138V133.739C317.896 142.663 319.557 144.679 326.441 144.679H327.559Z" fill="#7E0C27"/>
<path d="M354 133.739V126.863C354 111.187 357.936 107 373.591 107H374.863C388.913 107 393.667 110.453 393.667 120.904V122.463H382.372V121.516C382.372 117.604 380.949 116.198 374.802 116.198H373.985C367.172 116.198 365.839 117.94 365.839 127.047V133.739C365.839 142.54 367.232 144.679 374.136 144.679H375.014C381.494 144.679 382.978 142.999 382.978 138.262V136.856H373.47V128.33H394V137.07C394 150.577 390.124 154 374.923 154H373.743C357.936 154 354 149.966 354 133.739Z" fill="#7E0C27"/>
<path d="M400 108H412V153H400V108Z" fill="#7E0C27"/>
<path d="M420 108H452.402V116.82H431.459V125.82H450.966V134.19H431.459V144H453V153H420V108Z" fill="#7E0C27"/>
<path d="M458 141.165V138.812H469.073V140.493C469.073 144.221 470.487 145.168 477.439 145.168H478.73C484.636 145.168 485.651 144.068 485.651 140.707V139.882C485.651 136.581 484.697 135.084 475.532 134.503C460.584 133.464 458.123 130.042 458.123 120.568V119.499C458.123 110.575 461.537 107 475.039 107H477.162C493.401 107 495.801 110.056 495.801 119.224V121.332H484.759V119.774C484.759 116.932 483.836 115.709 477.561 115.709H476.085C470.487 115.709 469.349 116.534 469.349 119.621V120.507C469.349 123.563 470.149 124.633 479.407 125.427C494.355 126.802 497 129.614 497 139.026V140.309C497 150.7 492.94 154 480.36 154H478.515C460.368 154 458 151.708 458 141.165Z" fill="#7E0C27"/>
<path d="M3 0H9.12811C12.6211 0 13.663 0.728655 13.663 4.12903C13.663 6.58824 13.1114 7.37761 11.3955 7.71158C13.3259 8.0759 14 8.83492 14 11.7192C14 15.1499 12.8969 16 9.55708 16H3.15321L3 0ZM8.88298 6.7704C10.2618 6.7704 10.6908 6.4668 10.6908 4.463C10.6908 2.45921 10.2924 2.18596 8.54594 2.18596H5.7883V6.7704H8.88298ZM8.66852 13.723C10.5989 13.723 10.9972 13.2979 10.9972 11.2638C10.9972 9.2296 10.4763 8.74384 8.94428 8.74384H5.88022V13.723H8.66852Z" fill="#7E0C27"/>
<path d="M28.4961 10.7977L24 0H27.1008L30.0465 8.07562L32.8992 0H36L31.5349 10.7977V16H28.4341L28.4961 10.7977Z" fill="#7E0C27"/>
<path d="M61 9.56457V6.22879C61 1.26938 61.9499 0 66.546 0H66.8217C71.1421 0 72 1.12177 72 4.45756V4.90037H69.1504V4.369C69.1504 2.80443 68.7827 2.24354 66.791 2.24354H66.5153C64.3398 2.24354 63.9415 2.80443 63.9415 6.02214V9.7417C63.9415 13.1365 64.3092 13.6384 66.546 13.6384H66.8217C68.9666 13.6384 69.3343 13.1956 69.3343 11.0111V9.91882H66.2702V7.58672H71.9693V10.5387C71.9693 15.1144 71.0502 16 66.6685 16H66.3315C61.8886 15.941 61 14.7601 61 9.56457Z" fill="#7E0C27"/>
<path d="M86.3333 0H90.7905L95 16H91.9047L91.0691 12.5822H85.9309L85.0953 16H82L86.3333 0ZM90.7905 10.3743L88.7476 2.1172L86.6119 10.3743H90.7905Z" fill="#7E0C27"/>
<path d="M106 0H108.941V13.697H114V16H106V0Z" fill="#7E0C27"/>
<path d="M125 0H128V16H125V0Z" fill="#7E0C27"/>
<path d="M140.091 0H144.364L149.545 13.4291L149.364 0H152V16H147.818L142.606 2.54064V16H140L140.091 0Z" fill="#7E0C27"/>
<path d="M167.323 0H171.77L176 16H172.89L172.081 12.5822H166.95L166.11 16H163L167.323 0ZM171.646 10.3743L169.562 2.1172L167.416 10.3743H171.646Z" fill="#7E0C27"/>
<path d="M201.214 0H205.711L209.138 13.0662L212.595 0H217V16H214.308V2.41966L210.514 16H207.455L203.631 2.41966V16H201L201.214 0Z" fill="#7E0C27"/>
<path d="M232.239 0H236.729L241 16H237.86L237.043 12.5822H231.862L230.983 16H228L232.239 0ZM236.572 10.3743L234.5 2.1172L232.365 10.3743H236.572Z" fill="#7E0C27"/>
<path d="M252 0H254.968V6.82667H256.085L260.202 0H263.553L258.798 7.68L264 16H260.457L256.181 8.80762H255.096V16H252.128L252 0Z" fill="#7E0C27"/>
<path d="M277.354 0H281.738L286 16H282.955L282.164 12.5822H276.866L276.045 16H273L277.354 0ZM281.585 10.3743L279.576 2.1172L277.475 10.3743H281.585Z" fill="#7E0C27"/>
<path d="M297.116 0H302.318C306.22 0 307 0.819738 307 4.463V5.03985C307 7.59013 306.422 8.59203 305.006 8.89564C306.653 9.2296 307 10.0493 307 13.2372V16H304.168V13.4497C304.168 10.4137 303.85 10.2011 301.769 10.2011H299.717V16H297L297.116 0ZM302.347 8.0759C303.879 8.0759 304.283 7.55977 304.283 5.73814V4.6148C304.283 2.55029 303.908 2.18596 301.942 2.18596H299.832V8.01518L302.347 8.0759Z" fill="#7E0C27"/>
<path d="M319 9.59999V6.28148C319 1.3037 319.844 0 324.296 0H324.704C329.156 0 330 1.3037 330 6.28148V9.59999C330 14.7852 329.156 16 324.704 16H324.296C319.844 16 319 14.7852 319 9.59999ZM324.82 13.6889C326.886 13.6889 327.294 13.1259 327.294 9.77777V6.04445C327.294 2.84445 326.886 2.25185 324.82 2.25185H324.442C322.317 2.25185 321.939 2.84445 321.939 6.04445V9.77777C321.939 13.1259 322.317 13.6889 324.442 13.6889H324.82Z" fill="#7E0C27"/>
<path d="M341 0.0907335H344L347 13.7618L350 0H353L349.1 16H345.17L341 0.0907335Z" fill="#7E0C27"/>
<path d="M366.313 0H370.749L375 16H371.897L371.091 12.5822H365.94L365.103 16H362L366.313 0ZM370.625 10.3743L368.578 2.1172L366.437 10.3743H370.625Z" fill="#7E0C27"/>
</svg>
