<svg width="91" height="42" viewBox="0 0 91 42" fill="none" xmlns="http://www.w3.org/2000/svg">
<path d="M24.0836 17.1196C19.0594 20.9069 14.0965 23.3543 7.85147 23.1524C5.93747 23.0851 4.0112 23.1524 2.02972 23.1524V29.1424C2.02947 30.9194 2.42017 32.6747 3.17424 34.2847C3.92832 35.8946 5.02741 37.3199 6.39398 38.46C7.76054 39.6001 9.3613 40.4272 11.0833 40.883C12.8053 41.3388 14.6066 41.4122 16.3602 41.098C23.8996 39.7275 32.4758 26.64 38.7086 20.6438C38.7086 20.6438 43.8923 27.6434 37.0768 39.3053C36.4204 40.425 38.0951 41.6609 39.3895 41.7527C51.8857 42.4869 63.0139 39.3971 72.5164 30.1275V39.8743H91V9.59992C91.0002 8.96129 90.7501 8.34788 90.3031 7.89062C89.8561 7.43337 89.2476 7.16848 88.6075 7.15252C82.9943 7.03015 81.4668 7.01179 76.1235 8.90853C70.0257 11.0806 63.2409 18.1169 60.0631 23.697C55.1555 32.2629 42.3771 37.7328 53.0451 22.0878C53.0574 22.1306 49.3337 -1.88452 24.0836 17.1196Z" fill="#7E0C27"/>
<path d="M9.55772 0L10.4779 2.49023C11.0002 3.88947 11.8185 5.16016 12.877 6.21592C13.9356 7.27168 15.2096 8.08778 16.6125 8.60874L19.1093 9.53264L16.6125 10.4504C15.2096 10.9714 13.9356 11.7875 12.877 12.8432C11.8185 13.899 11.0002 15.1697 10.4779 16.5689L9.55772 19.0714L8.6314 16.575C8.10906 15.1758 7.29082 13.9051 6.23228 12.8494C5.17374 11.7936 3.89971 10.9775 2.49679 10.4565L0 9.53875L2.49679 8.61486C3.90133 8.09674 5.17684 7.28164 6.23576 6.22551C7.29467 5.16937 8.11192 3.89721 8.6314 2.49635L9.55772 0Z" fill="#7E0C27"/>
</svg>
