<svg xmlns="http://www.w3.org/2000/svg" xmlns:xlink="http://www.w3.org/1999/xlink" viewBox="0 0 64 64"><defs><style>.a{clip-path:url(#b);}</style><clipPath id="b"><rect width="64" height="64"/></clipPath></defs><g id="a" class="a"><g transform="translate(2 2)"><path style="fill:#00b0d7" d="M43.3,18.2H40V16.8a.472.472,0,0,0-.5-.5H36.2a.472.472,0,0,0-.5.5v1.4H25.3V16.8a.472.472,0,0,0-.5-.5H21.5a.472.472,0,0,0-.5.5v1.4H17.7a.472.472,0,0,0-.5.5V44.3a.472.472,0,0,0,.5.5H43.3a.472.472,0,0,0,.5-.5V18.7A.472.472,0,0,0,43.3,18.2Zm-6.6-1H39V20H36.6V17.2ZM22,17.2h2.4V20H22V17.2Zm-3.8,1.9H21v1.4a.472.472,0,0,0,.5.5h3.3a.472.472,0,0,0,.5-.5V19.1H35.7v1.4a.472.472,0,0,0,.5.5h3.3a.472.472,0,0,0,.5-.5V19.1h2.8v4.3H18.2Zm0,24.7V24.3H42.8V43.7H18.2Z"/><path style="fill:#00b0d7" d="M34.3,27.2H21.5V40.9h18V27.2H34.3Zm-3.3.9h3.3v3.3H31Zm3.3,7.6H31V32.4h3.3Zm-7.6-3.3H30v3.3H26.7Zm0-4.3H30v3.3H26.7Zm-4.3,0h3.3v3.3H22.4Zm0,4.3h3.3v3.3H22.4ZM25.8,40H22.5V36.7h3.3ZM30,40H26.7V36.7H30Zm4.3,0H31V36.7h3.3Zm4.3,0H35.3V36.7h3.3Zm0-4.3H35.3V32.4h3.3Zm0-7.6v3.3H35.3V28.1Z"/><path style="fill:#00b0d7" d="M30.5,61A30.5,30.5,0,1,1,61,30.5,30.557,30.557,0,0,1,30.5,61Zm0-60A29.5,29.5,0,1,0,60,30.5,29.49,29.49,0,0,0,30.5,1Z"/></g></g></svg>