<svg xmlns="http://www.w3.org/2000/svg" xmlns:xlink="http://www.w3.org/1999/xlink" viewBox="0 0 64 64"><defs><style>.a{clip-path:url(#b);}</style><clipPath id="b"><rect width="64" height="64"/></clipPath></defs><g id="a" class="a"><g transform="translate(2 2)"><path style="fill:#00b0d7" d="M31.4,34.9a1.6,1.6,0,0,0,1.4-.8L38,27a.494.494,0,0,0-.1-.7.616.616,0,0,0-.7-.1l-7.1,5.2a1.723,1.723,0,0,0-.8,1.4,2.035,2.035,0,0,0,.6,1.5,1.974,1.974,0,0,0,1.4.6Zm-1-2a.548.548,0,0,1,.4-.6l4.3-3.1L32,33.5c-.1.2-.4.3-.6.4a1.445,1.445,0,0,1-.7-.2A1.6,1.6,0,0,1,30.4,32.9Z"/><path style="fill:#00b0d7" d="M43.7,24.8h0a13.5,13.5,0,0,0-2-2.7l1.2-1.2.8.8L46,19.4,43.7,17l-2.3,2.3.8.8L41,21.3a25.6,25.6,0,0,0-2.6-2h0a15.363,15.363,0,0,0-5.7-1.9v-.7h.8a1.4,1.4,0,1,0,0-2.8H28.6a1.4,1.4,0,0,0,0,2.8h.8v.6l-1.8.3a.57.57,0,0,0,.3,1.1l1.5-.3h1.1v1.1a.5.5,0,0,0,1,0V18.4A14.338,14.338,0,0,1,37.3,20l-.5.9a.54.54,0,0,0,.2.8.367.367,0,0,0,.3.1.55.55,0,0,0,.5-.3l.5-.9a14.686,14.686,0,0,1,4.3,4.3l-.9.5a.54.54,0,0,0-.2.8.55.55,0,0,0,.5.3.367.367,0,0,0,.3-.1l.9-.5a14.338,14.338,0,0,1,1.6,5.8H43.7c-.3,0-.5.2-.5.6a.472.472,0,0,0,.5.5h1.1a12.568,12.568,0,0,1-1.6,5.8L42.1,38a.583.583,0,0,0-.6,1l.9.5a14.686,14.686,0,0,1-4.3,4.3l-.5-.9a.583.583,0,1,0-1,.6l.5.9A13.908,13.908,0,0,1,31.3,46V44.9c0-.3-.2-.5-.6-.5a.472.472,0,0,0-.5.5V46a10.9,10.9,0,0,1-2.6-.3.57.57,0,0,0-.3,1.1,12.423,12.423,0,0,0,3.3.4h.1a14.3,14.3,0,0,0,7.3-2h.1a14.721,14.721,0,0,0,5.4-5.4h0a14.4,14.4,0,0,0,2-7.4A12.656,12.656,0,0,0,43.7,24.8Zm0-6.3.8.8-.8.8-.8-.8ZM30.4,17.3V15.6H28.5a.3.3,0,0,1,0-.6h4.9a.3.3,0,0,1,0,.6H31.5v1.7H30.4Z"/><path style="fill:#00b0d7" d="M26,21.7H23.3c-.3,0-.5.2-.5.6a.472.472,0,0,0,.5.5H26a.472.472,0,0,0,.5-.5C26.5,21.9,26.3,21.7,26,21.7Z"/><path style="fill:#00b0d7" d="M26,25.5H20.5a.5.5,0,0,0,0,1H26a.5.5,0,0,0,0-1Z"/><path style="fill:#00b0d7" d="M26,29.4H17.8a.5.5,0,0,0,0,1H26a.5.5,0,0,0,0-1Z"/><path style="fill:#00b0d7" d="M26,33.2H15.5a.56.56,0,0,0-.6.5c0,.3.2.5.6.5H26a.5.5,0,0,0,0-1Z"/><path style="fill:#00b0d7" d="M26,37.1H18.9a.5.5,0,1,0,0,1H26a.5.5,0,0,0,0-1Z"/><path style="fill:#00b0d7" d="M26,40.9H22.2a.5.5,0,1,0,0,1H26a.472.472,0,0,0,.5-.5A.536.536,0,0,0,26,40.9Z"/><path style="fill:#00b0d7" d="M30.5,61A30.5,30.5,0,1,1,61,30.5,30.557,30.557,0,0,1,30.5,61Zm0-60A29.5,29.5,0,1,0,60,30.5,29.49,29.49,0,0,0,30.5,1Z"/></g></g></svg>