<svg xmlns="http://www.w3.org/2000/svg" xmlns:xlink="http://www.w3.org/1999/xlink" viewBox="0 0 64 64"><defs><style>.a{clip-path:url(#b);}</style><clipPath id="b"><rect width="64" height="64"/></clipPath></defs><g id="a" class="a"><g transform="translate(2 2)"><path style="fill:#00b0d7" d="M46.1,40H44.6V37.6a1.9,1.9,0,0,0-1.9-1.9H41.6V33.3a1.9,1.9,0,0,0-1.9-1.9H21.3a1.9,1.9,0,0,0-1.9,1.9v2.4H18.3a1.9,1.9,0,0,0-1.9,1.9V40H14.9A1.9,1.9,0,0,0,13,41.9V45a.645.645,0,0,0,.6.6H47.4A.645.645,0,0,0,48,45V41.9A1.839,1.839,0,0,0,46.1,40ZM20.7,33.2a.576.576,0,0,1,.6-.6H39.7a.576.576,0,0,1,.6.6v2.4H20.7Zm-3.1,4.3a.576.576,0,0,1,.6-.6H42.8a.576.576,0,0,1,.6.6V40H17.6Zm29.2,6.8H14.2V41.9a.576.576,0,0,1,.6-.6H46.1a.576.576,0,0,1,.6.6l.1,2.4Z"/><path style="fill:#00b0d7" d="M37.9,22.5a.664.664,0,0,0-.5-.4.713.713,0,0,0-.6.3l-.7,1a9.971,9.971,0,0,0-.2-1.6,8.612,8.612,0,0,0-2.8-4.9A7.434,7.434,0,0,0,31,15.6a.446.446,0,0,0-.5,0c-.2.1-.3.2-.3.4a13.918,13.918,0,0,1-2.6,5,21.213,21.213,0,0,1-1.5,1.5,7.783,7.783,0,0,0-2.4,3.1,7.466,7.466,0,0,0-.3,3.6c.1.3.4.6.7.5s.6-.4.5-.7a5.48,5.48,0,0,1,.2-3,5.722,5.722,0,0,1,2-2.6,11.989,11.989,0,0,0,1.6-1.6A12.514,12.514,0,0,0,31.1,17a8.342,8.342,0,0,1,1.2.8A8.032,8.032,0,0,1,34.7,25c0,.1-.4.9-.4,1a.67.67,0,0,0,.3.8.524.524,0,0,0,.8-.2l1.7-2.4a8.479,8.479,0,0,1-.3,5.4.63.63,0,0,0,.3.8h.2a.622.622,0,0,0,.6-.4A10.093,10.093,0,0,0,37.9,22.5Z"/><path style="fill:#00b0d7" d="M28.6,25.9a.633.633,0,0,0-.9-.1,4.621,4.621,0,0,0-1.3,1.8,4.067,4.067,0,0,0-.2,2.2.634.634,0,0,0,.6.5h.1c.3-.1.6-.4.5-.7a3.812,3.812,0,0,1,.1-1.5,3.616,3.616,0,0,1,.9-1.3A.58.58,0,0,0,28.6,25.9Z"/><path style="fill:#00b0d7" d="M30.5,61A30.5,30.5,0,1,1,61,30.5,30.557,30.557,0,0,1,30.5,61Zm0-60A29.5,29.5,0,1,0,60,30.5,29.49,29.49,0,0,0,30.5,1Z"/></g></g></svg>